<?xml version="1.0" standalone="no"?>
<!DOCTYPE svg PUBLIC "-//W3C//DTD SVG 20010904//EN"
 "http://www.w3.org/TR/2001/REC-SVG-20010904/DTD/svg10.dtd">
<svg version="1.0" xmlns="http://www.w3.org/2000/svg"
 width="768.000000pt" height="432.000000pt" viewBox="0 0 768.000000 432.000000"
 preserveAspectRatio="xMidYMid meet">

<g transform="translate(0.000000,432.000000) scale(0.100000,-0.100000)"
fill="#000000" stroke="none">
<path d="M2100 2754 c-25 -2 -126 -9 -225 -16 -132 -9 -169 -14 -140 -20 26
-4 14 -5 -35 -3 -52 3 -67 1 -50 -5 17 -6 1 -8 -50 -5 -56 3 -67 2 -45 -5 26
-8 24 -9 -16 -5 -59 5 -121 -4 -112 -18 4 -6 -2 -8 -17 -4 -13 3 -30 1 -37 -5
-7 -6 -13 -8 -13 -5 0 11 -95 -36 -131 -64 -20 -16 -40 -25 -44 -21 -5 4 -5 2
-2 -4 7 -12 -20 -42 -38 -43 -5 -1 -10 -4 -10 -8 0 -5 -12 -24 -26 -43 -15
-19 -34 -56 -44 -82 l-18 -48 -86 -2 -86 -2 80 -6 c63 -5 70 -7 30 -8 -27 -1
-68 -5 -89 -9 -30 -5 -37 -3 -31 6 5 9 2 12 -11 9 -15 -2 -20 -14 -22 -50 -5
-80 4 -87 111 -90 l92 -3 6 -175 c17 -437 113 -797 248 -924 82 -76 166 -108
426 -166 136 -30 302 -44 530 -44 208 -1 257 3 369 23 179 32 241 53 322 110
111 78 206 195 328 409 139 241 229 569 225 824 -1 80 2 113 11 118 74 46 606
46 680 0 10 -6 14 -25 12 -62 -4 -86 16 -289 37 -380 65 -279 176 -514 353
-749 141 -187 278 -250 623 -289 328 -36 878 31 1081 132 126 63 201 166 258
358 55 187 96 462 96 652 0 75 3 143 6 152 5 13 23 16 93 16 54 0 92 5 99 12
7 7 12 36 12 65 0 48 -3 54 -26 63 -14 6 -63 10 -108 10 l-83 0 -11 38 c-28
90 -141 213 -230 248 -20 8 -46 19 -57 24 -11 6 -29 11 -40 13 -11 1 -25 6
-31 9 -21 14 -148 29 -193 23 -35 -4 -41 -3 -26 5 15 7 -2 9 -60 6 -44 -3 -64
-1 -45 2 25 6 -6 11 -115 20 -521 43 -1216 8 -1397 -70 -42 -18 -128 -95 -128
-115 0 -4 -17 -19 -37 -33 l-37 -25 -385 0 c-369 0 -388 1 -418 20 -17 11 -31
24 -31 28 0 17 -84 98 -121 116 -76 39 -205 61 -471 81 -143 11 -624 21 -700
14z m805 -59 c298 -29 352 -47 451 -150 34 -36 58 -65 54 -65 -4 0 4 -28 19
-62 24 -58 26 -74 25 -188 -4 -380 -198 -854 -457 -1118 -76 -78 -120 -105
-217 -131 -331 -90 -797 -84 -1200 15 -117 29 -174 54 -250 111 -90 67 -143
179 -195 408 -40 180 -55 309 -62 535 -9 305 6 365 119 481 63 65 137 102 245
123 86 16 327 42 523 56 183 13 756 4 945 -15z m2993 1 c202 -18 361 -41 429
-61 71 -21 134 -65 191 -133 81 -98 90 -134 92 -369 2 -370 -57 -707 -160
-913 -25 -49 -99 -130 -120 -130 -4 0 -13 -6 -20 -14 -14 -18 -120 -59 -207
-81 -197 -49 -414 -75 -639 -75 -266 0 -440 22 -607 76 -68 23 -87 35 -157
101 -188 177 -361 509 -434 838 -49 220 -53 367 -13 479 14 36 20 63 16 60 -5
-3 -9 0 -9 5 0 6 5 11 11 11 5 0 7 5 3 12 -4 7 -3 8 4 4 6 -4 19 3 29 16 98
124 183 152 538 178 83 6 168 12 190 14 95 9 704 -4 863 -18z m235 -3 c-7 -2
-19 -2 -25 0 -7 3 -2 5 12 5 14 0 19 -2 13 -5z m-4636 -9 c-3 -3 -12 -4 -19
-1 -8 3 -5 6 6 6 11 1 17 -2 13 -5z m4716 -1 c-7 -2 -19 -2 -25 0 -7 3 -2 5
12 5 14 0 19 -2 13 -5z m602 -353 c5 -9 -154 -3 -164 6 -2 2 32 4 77 4 44 0
84 -4 87 -10z"/>
<path d="M1420 2260 c0 -5 4 -10 8 -10 4 0 7 -12 6 -27 -1 -16 -7 -27 -13 -25
-6 1 -11 -2 -11 -8 0 -5 16 -10 35 -10 32 0 35 2 35 29 0 16 -3 36 -6 45 -7
17 -54 22 -54 6z"/>
<path d="M1090 2211 c0 -6 10 -8 21 -6 33 6 36 15 6 15 -15 0 -27 -4 -27 -9z"/>
<path d="M1298 2203 c12 -2 32 -2 45 0 12 2 2 4 -23 4 -25 0 -35 -2 -22 -4z"/>
<path d="M1513 2183 c9 -2 23 -2 30 0 6 3 -1 5 -18 5 -16 0 -22 -2 -12 -5z"/>
<path d="M1620 2179 c0 -8 -12 -9 -32 -6 l-33 6 27 -14 c31 -17 62 -62 36 -52
-8 3 14 -45 49 -106 35 -62 122 -229 192 -372 71 -143 138 -270 150 -282 40
-42 131 -24 131 25 0 83 -35 172 -67 172 -6 0 -15 5 -19 12 -5 7 -2 9 7 4 8
-4 6 -1 -3 7 -10 8 -18 18 -18 24 0 5 -9 18 -19 30 -11 11 -29 40 -41 64 -22
41 -69 118 -80 129 -3 3 -17 28 -31 55 -15 28 -48 85 -75 128 -27 43 -54 88
-61 100 -14 24 -68 90 -58 70 4 -9 1 -11 -9 -7 -9 3 -16 10 -16 15 0 5 -7 9
-15 9 -8 0 -15 -5 -15 -11z"/>
<path d="M3350 1980 c-8 -5 -15 -15 -15 -22 -1 -7 -6 -12 -13 -10 -7 1 -11 -1
-11 -5 3 -19 -2 -34 -10 -29 -4 3 -6 -7 -5 -22 2 -15 2 -22 -1 -16 -10 21
-105 -34 -105 -60 0 -6 5 -4 10 4 9 13 10 13 10 0 1 -9 5 -6 10 7 6 15 15 21
25 17 18 -7 18 -14 6 -48 -7 -18 -15 -23 -30 -19 -12 3 -18 9 -15 14 3 5 0 9
-5 9 -6 0 -11 -11 -11 -25 0 -14 6 -25 13 -25 7 0 30 -9 52 -20 22 -11 45 -20
51 -20 19 0 25 30 9 46 -23 23 -18 37 10 32 31 -6 33 16 8 61 -16 28 -17 33
-3 58 9 15 27 33 40 40 24 12 16 17 -20 14 -10 -1 -9 2 4 10 16 10 22 8 38
-11 17 -21 18 -21 18 -2 0 28 -32 40 -60 22z m-40 -144 c0 -2 -7 -9 -15 -16
-13 -11 -14 -10 -9 4 5 14 24 23 24 12z"/>
<path d="M6212 2258 c-7 -7 -12 -27 -12 -45 0 -31 2 -33 35 -33 19 0 35 5 35
10 0 6 -5 10 -11 10 -8 0 -10 12 -6 35 5 29 3 35 -12 35 -9 0 -22 -5 -29 -12z"/>
<path d="M6540 2216 c0 -2 11 -6 25 -8 14 -3 25 -1 25 3 0 5 -11 9 -25 9 -14
0 -25 -2 -25 -4z"/>
<path d="M6029 2205 c-1 -3 -2 -8 -3 -12 -3 -18 -18 -33 -27 -28 -5 4 -9 2 -9
-3 0 -4 -8 -17 -17 -28 -21 -24 -9 -4 -178 -286 -75 -124 -142 -232 -150 -238
-8 -7 -12 -16 -9 -21 3 -5 0 -8 -8 -7 -7 2 -12 -4 -10 -14 2 -16 -13 -32 -33
-33 -5 0 -9 -8 -9 -18 1 -9 -2 -17 -8 -17 -5 0 -6 -4 -3 -10 3 -5 2 -10 -4
-10 -6 0 -8 -7 -5 -15 4 -8 1 -15 -6 -15 -10 0 -11 -17 -7 -66 7 -73 12 -83
29 -66 15 15 74 16 83 2 3 -5 16 -10 27 -10 20 0 20 1 5 18 -15 16 -15 21 -2
38 7 11 72 137 144 280 152 302 216 421 238 446 14 16 11 22 -9 19 -4 0 -5 5
-2 12 9 22 53 48 97 56 40 8 40 9 9 10 -18 1 -42 -4 -54 -10 -22 -12 -82 6
-72 22 3 5 3 9 0 9 -3 0 -7 -2 -7 -5z"/>
<path d="M4288 1979 c-10 -5 -18 -14 -18 -20 0 -5 11 -2 24 7 20 12 29 13 43
4 16 -10 16 -11 -4 -7 -12 3 -27 -1 -33 -8 -9 -11 -7 -12 9 -8 15 4 24 -4 40
-34 l19 -39 -20 -32 c-23 -36 -18 -73 7 -52 12 10 16 9 22 -5 4 -11 0 -22 -10
-30 -14 -10 -15 -15 -3 -30 13 -18 14 -18 52 0 22 10 45 18 52 18 24 0 36 43
23 76 -12 27 -54 54 -86 54 -8 0 -11 7 -7 15 4 11 1 13 -8 7 -10 -6 -12 -4 -7
9 4 10 3 15 -3 11 -9 -6 -14 8 -11 28 1 5 -4 5 -10 1 -9 -5 -10 -2 -6 9 4 11
-1 20 -13 27 -23 12 -30 12 -52 -1z m183 -164 c8 -29 -5 -50 -24 -38 -13 8
-28 53 -21 64 11 19 38 4 45 -26z m-71 4 c0 -6 -4 -7 -10 -4 -5 3 -10 11 -10
16 0 6 5 7 10 4 6 -3 10 -11 10 -16z"/>
<path d="M5107 1443 c-14 -22 -34 -124 -26 -129 10 -6 13 2 27 56 l8 34 36
-47 36 -47 32 40 c17 22 35 38 40 35 4 -3 11 -21 14 -40 7 -35 36 -51 36 -19
0 23 -22 108 -30 117 -4 5 -22 -12 -40 -37 -19 -25 -36 -46 -40 -46 -3 0 -21
20 -40 45 -33 44 -44 52 -53 38z"/>
<path d="M5360 1380 l0 -70 70 0 c40 0 70 4 70 10 0 6 -25 10 -55 10 -48 0
-55 2 -55 20 0 18 7 20 55 20 30 0 55 5 55 10 0 6 -25 10 -55 10 -48 0 -55 2
-55 20 0 18 7 20 55 20 30 0 55 5 55 10 0 6 -30 10 -70 10 l-70 0 0 -70z"/>
<path d="M5750 1380 l0 -70 65 0 c37 0 65 4 65 10 0 6 -22 10 -50 10 -43 0
-50 3 -50 20 0 17 7 20 50 20 28 0 50 5 50 10 0 6 -22 10 -50 10 -43 0 -50 3
-50 20 0 17 7 20 50 20 28 0 50 5 50 10 0 6 -28 10 -65 10 l-65 0 0 -70z"/>
<path d="M5930 1380 l0 -70 70 0 c40 0 70 4 70 10 0 6 -25 10 -55 10 l-55 0 0
60 c0 47 -3 60 -15 60 -12 0 -15 -14 -15 -70z"/>
</g>
</svg>
