<?xml version="1.0" standalone="no"?>
<!DOCTYPE svg PUBLIC "-//W3C//DTD SVG 20010904//EN"
 "http://www.w3.org/TR/2001/REC-SVG-20010904/DTD/svg10.dtd">
<svg version="1.0" xmlns="http://www.w3.org/2000/svg"
 width="768.000000pt" height="432.000000pt" viewBox="0 0 768.000000 432.000000"
 preserveAspectRatio="xMidYMid meet">

<g transform="translate(0.000000,432.000000) scale(0.100000,-0.100000)"
fill="#000000" stroke="none">
<path d="M1880 2394 c-219 -18 -319 -29 -470 -50 -184 -26 -494 -78 -545 -92
l-30 -8 -3 -110 c-3 -121 3 -134 64 -134 51 0 78 -30 103 -114 13 -42 27 -76
32 -76 5 0 9 -20 9 -45 0 -83 22 -245 33 -238 6 3 7 1 3 -6 -11 -17 4 -92 16
-84 7 3 8 1 4 -5 -10 -16 5 -93 16 -86 6 4 7 -2 3 -16 -4 -12 -3 -20 1 -17 5
3 9 -9 10 -26 1 -45 60 -171 75 -161 7 4 9 3 5 -4 -9 -15 44 -74 61 -68 8 3
11 1 8 -4 -14 -22 165 -83 335 -114 259 -46 307 -50 645 -50 253 0 359 4 456
17 247 33 415 93 489 174 71 77 111 149 104 184 -4 17 -3 20 4 11 12 -18 56
87 46 112 -4 10 0 22 9 29 20 15 66 169 71 235 2 28 7 56 11 62 4 7 9 29 10
49 2 20 6 45 10 56 5 14 4 16 -3 7 -7 -11 -10 -11 -15 1 -3 9 1 18 9 21 10 4
13 13 8 30 -3 14 2 41 14 67 11 24 22 56 26 71 12 50 27 52 349 53 l299 0 19
-24 c10 -13 19 -31 19 -40 0 -9 7 -29 17 -46 9 -17 15 -51 15 -78 -1 -27 3
-45 8 -42 6 4 9 -13 7 -40 -1 -25 0 -45 3 -45 3 0 7 -14 8 -32 2 -17 8 -39 15
-47 10 -14 10 -14 -5 -3 -9 7 -20 28 -24 45 -4 18 -9 27 -11 20 -2 -7 3 -27
11 -45 8 -18 23 -63 32 -100 9 -37 20 -65 25 -62 5 3 6 -2 3 -10 -3 -8 4 -45
16 -82 17 -49 25 -63 32 -53 7 10 8 6 4 -12 -5 -25 17 -99 30 -99 3 0 2 5 -2
12 -4 7 -3 8 5 4 8 -5 9 -12 2 -20 -6 -7 -6 -17 -1 -26 7 -11 10 -12 10 -2 0
7 5 10 10 7 8 -5 7 -12 -2 -23 -8 -10 -9 -13 -1 -9 6 4 14 3 18 -3 3 -5 1 -10
-5 -10 -15 0 66 -115 103 -146 42 -36 126 -76 144 -70 9 4 11 2 7 -6 -5 -7 0
-9 14 -6 14 4 20 2 15 -5 -4 -6 2 -8 15 -5 12 4 20 3 17 -2 -5 -8 92 -31 210
-50 350 -54 924 -32 1240 46 136 34 135 34 128 52 -6 15 -4 15 10 4 13 -11 23
-10 62 7 26 11 44 25 41 30 -4 5 -1 13 5 17 8 4 9 3 5 -4 -4 -7 -3 -12 3 -12
34 0 134 177 124 221 -3 17 -2 20 5 11 21 -30 97 360 90 464 -2 35 2 53 13 64
9 8 24 45 34 83 20 78 48 107 104 107 60 0 62 4 59 131 l-3 114 -105 22 c-231
48 -657 106 -905 124 -200 14 -653 6 -830 -16 -203 -24 -536 -74 -575 -86 -19
-6 -73 -30 -120 -53 l-84 -41 -391 0 -391 0 -70 36 c-97 51 -151 66 -374 99
-371 55 -450 62 -775 65 -170 1 -330 1 -355 -1z m645 -54 c179 -12 440 -44
585 -71 169 -33 255 -83 302 -177 21 -43 23 -60 23 -187 -1 -102 -4 -139 -13
-138 -9 2 -39 -37 -34 -44 7 -10 0 -23 -12 -23 -8 0 -18 -4 -21 -10 -4 -6 1
-7 11 -3 18 7 14 -6 -12 -37 -6 -8 -14 -26 -16 -40 -1 -14 -7 -29 -13 -33 -6
-5 -3 -7 6 -4 9 3 22 0 29 -6 10 -10 10 -7 1 10 -9 19 -8 24 8 33 28 14 31 3
14 -60 -8 -30 -12 -63 -9 -73 2 -9 1 -15 -4 -12 -4 2 -18 -26 -30 -63 -13 -37
-33 -91 -47 -121 -13 -31 -21 -63 -18 -75 5 -15 4 -17 -3 -7 -8 11 -12 10 -21
-7 -6 -12 -10 -27 -9 -34 2 -6 -2 -12 -8 -13 -6 0 -24 -16 -40 -34 -21 -25
-24 -33 -11 -28 12 4 16 3 12 -4 -4 -6 -13 -8 -19 -6 -7 3 -32 -8 -56 -24 -24
-16 -48 -29 -54 -29 -6 0 -5 -4 2 -9 9 -6 5 -8 -15 -8 -15 0 -73 -12 -129 -26
-179 -47 -319 -60 -644 -61 -321 0 -473 12 -699 58 -68 14 -128 23 -134 19 -5
-3 -7 -2 -4 4 8 12 -69 37 -85 27 -6 -4 -8 -3 -5 3 4 6 -12 18 -33 28 -45 20
-115 91 -130 131 -6 14 -14 22 -20 19 -5 -3 -7 0 -4 8 2 7 -2 35 -11 62 -44
128 -79 306 -91 458 -4 49 -3 87 2 87 5 0 9 64 9 143 1 125 3 147 22 182 31
59 70 93 125 110 88 26 467 79 628 88 136 8 539 6 675 -3z m3355 0 c161 -12
514 -63 587 -85 58 -17 108 -61 131 -115 14 -33 35 -306 31 -405 -1 -22 -2
-63 -3 -92 0 -28 -3 -47 -6 -42 -3 4 -11 -28 -18 -72 -7 -44 -10 -85 -6 -91 5
-7 3 -8 -6 -3 -10 6 -12 1 -7 -26 3 -19 3 -28 0 -20 -7 18 -55 -129 -49 -152
3 -11 2 -16 -1 -13 -8 8 -44 -51 -46 -75 -1 -10 -4 -16 -7 -14 -4 2 -22 -12
-41 -31 -19 -20 -51 -43 -71 -51 -21 -8 -38 -19 -38 -25 0 -5 -4 -7 -9 -4 -14
9 -42 -5 -34 -17 3 -6 1 -7 -6 -3 -7 5 -24 5 -39 1 -21 -5 -23 -8 -11 -16 10
-8 2 -9 -29 -6 -28 3 -40 2 -35 -5 3 -6 1 -8 -5 -4 -6 3 -32 2 -59 -4 -121
-26 -288 -44 -563 -60 -80 -5 -163 -11 -185 -14 -38 -4 -38 -4 -5 3 33 7 32 8
-23 12 -31 2 -57 1 -57 -3 0 -5 -8 -8 -17 -8 -15 0 -16 2 -3 10 10 7 -9 10
-63 10 -43 0 -121 5 -175 12 -53 7 -117 12 -140 12 -24 0 -38 2 -31 5 7 2 -27
14 -77 26 -49 13 -106 30 -127 39 -21 9 -43 14 -50 10 -7 -4 -9 -4 -5 1 11 11
-50 58 -64 49 -7 -4 -10 -4 -6 1 9 9 -41 77 -52 70 -4 -3 -14 3 -21 13 -13 15
-12 16 4 3 20 -16 22 -3 3 22 -8 10 -16 14 -18 10 -3 -4 -3 -3 -2 4 5 19 -41
115 -49 106 -5 -4 -5 0 -2 9 4 9 1 25 -5 35 -10 16 -11 16 -7 -5 3 -13 1 -20
-5 -16 -5 3 -7 16 -4 27 8 31 -45 197 -64 198 -11 1 -11 2 2 6 14 3 15 9 8 28
-10 27 -1 38 19 25 9 -5 12 -17 8 -30 -4 -17 -3 -20 6 -11 16 16 27 14 21 -4
-7 -18 21 -21 32 -3 4 7 3 8 -4 4 -7 -4 -15 8 -22 33 -6 22 -17 47 -25 55 -8
8 -15 21 -15 29 0 8 -7 20 -15 27 -8 7 -15 18 -15 25 0 6 -8 27 -17 46 -27 52
-22 250 8 313 40 85 111 131 254 164 138 32 482 75 675 85 143 8 549 6 670 -3z
m-2466 -686 c9 -3 16 -11 16 -16 0 -7 -5 -6 -13 1 -9 7 -17 7 -24 0 -6 -6 -10
-5 -10 6 0 16 7 18 31 9z m899 -8 c4 -10 1 -13 -8 -9 -8 3 -12 9 -9 14 7 12
11 11 17 -5z m-896 -58 c-3 -7 -5 -2 -5 12 0 14 2 19 5 13 2 -7 2 -19 0 -25z
m860 10 c-3 -8 -6 -5 -6 6 -1 11 2 17 5 13 3 -3 4 -12 1 -19z m-883 -92 c-3
-15 -8 -25 -11 -23 -2 3 -1 17 3 31 3 15 8 25 11 23 2 -3 1 -17 -3 -31z m925
-46 c0 -10 -3 -8 -9 5 -12 27 -12 43 0 25 5 -8 9 -22 9 -30z m-980 -119 c-6
-18 -13 -30 -15 -28 -2 2 1 18 7 36 6 18 13 30 15 28 2 -2 -1 -18 -7 -36z
m-48 -114 c-10 -9 -11 -8 -5 6 3 10 9 15 12 12 3 -3 0 -11 -7 -18z m-2050
-134 c13 -16 12 -17 -3 -4 -10 7 -18 15 -18 17 0 8 8 3 21 -13z m5229 13 c0
-2 -8 -10 -17 -17 -16 -13 -17 -12 -4 4 13 16 21 21 21 13z m-3893 -202 c-3
-3 -12 -4 -19 -1 -8 3 -5 6 6 6 11 1 17 -2 13 -5z m3126 -1 c-13 -2 -33 -2
-45 0 -13 2 -3 4 22 4 25 0 35 -2 23 -4z"/>
<path d="M1417 2103 c-4 -3 -7 -26 -7 -50 0 -50 18 -55 34 -11 6 18 5 31 -6
47 -8 11 -18 18 -21 14z"/>
<path d="M1633 1900 c-3 -11 -9 -18 -13 -15 -5 3 27 -59 71 -137 43 -79 113
-224 155 -323 94 -218 98 -225 135 -225 53 0 54 -2 -77 295 -48 110 -107 226
-134 265 -10 14 -21 36 -25 49 -8 27 -82 111 -97 111 -6 0 -12 -9 -15 -20z m8
-23 c-10 -9 -11 -8 -5 6 3 10 9 15 12 12 3 -3 0 -11 -7 -18z"/>
<path d="M6252 2088 c-19 -19 -14 -56 8 -68 19 -10 20 -8 20 35 0 46 -7 54
-28 33z"/>
<path d="M5998 1878 c-19 -24 -59 -88 -89 -143 -30 -55 -60 -109 -66 -120 -20
-35 -80 -169 -94 -210 -7 -22 -22 -55 -31 -73 -10 -18 -18 -41 -18 -52 0 -11
-4 -20 -9 -20 -21 0 -16 -46 7 -67 19 -19 34 -23 83 -23 33 0 59 4 59 10 0 6
-25 10 -57 10 -55 0 -56 0 -38 20 12 13 31 20 57 20 21 0 38 5 38 10 0 6 -16
10 -35 10 -19 0 -35 4 -35 8 0 15 24 32 47 32 13 0 23 5 23 10 0 6 -9 10 -20
10 -11 0 -20 2 -20 5 0 35 199 446 256 530 19 27 17 44 -2 20 -16 -20 -16 -20
-9 2 3 13 2 30 -3 38 -7 14 -15 9 -44 -27z"/>
<path d="M5046 1245 c-19 -75 -19 -75 -7 -75 6 0 16 21 23 47 l14 47 33 -47
c19 -26 35 -46 37 -44 1 1 18 21 37 44 l35 42 11 -44 c7 -28 17 -45 26 -45 18
0 18 7 4 68 -19 82 -17 81 -62 28 l-43 -49 -34 46 c-19 26 -40 47 -46 47 -6 0
-19 -29 -28 -65z"/>
<path d="M5320 1240 l0 -70 70 0 c40 0 70 4 70 10 0 6 -25 10 -55 10 -48 0
-55 2 -55 20 0 18 7 20 55 20 30 0 55 5 55 10 0 6 -25 10 -55 10 -48 0 -55 2
-55 20 0 18 7 20 55 20 30 0 55 5 55 10 0 6 -30 10 -70 10 l-70 0 0 -70z"/>
<path d="M5508 1303 c-9 -23 -2 -127 10 -130 7 -3 12 5 12 21 0 35 38 35 70 1
23 -24 50 -33 50 -17 0 5 -9 17 -20 27 l-20 18 21 23 21 22 -21 21 c-16 16
-34 21 -70 21 -28 0 -51 -3 -53 -7z m102 -33 c0 -17 -7 -20 -40 -20 -33 0 -40
3 -40 20 0 17 7 20 40 20 33 0 40 -3 40 -20z"/>
<path d="M5890 1240 l0 -70 64 0 c36 0 68 5 71 10 4 6 -15 10 -49 10 l-56 0 0
60 c0 47 -3 60 -15 60 -12 0 -15 -14 -15 -70z"/>
<path d="M3452 1701 c-6 -17 -9 -31 -6 -31 7 0 25 52 20 57 -2 2 -8 -10 -14
-26z"/>
</g>
</svg>
