<?xml version="1.0" standalone="no"?>
<!DOCTYPE svg PUBLIC "-//W3C//DTD SVG 20010904//EN"
 "http://www.w3.org/TR/2001/REC-SVG-20010904/DTD/svg10.dtd">
<svg version="1.0" xmlns="http://www.w3.org/2000/svg"
 width="1380.000000pt" height="920.000000pt" viewBox="0 0 1380.000000 920.000000"
 preserveAspectRatio="xMidYMid meet">

<g transform="translate(0.000000,920.000000) scale(0.100000,-0.100000)"
fill="#000000" stroke="none">
<path d="M4285 5346 c-27 -7 -63 -19 -80 -28 -16 -8 -41 -19 -55 -22 l-25 -7
25 20 c14 11 19 21 12 21 -7 0 -24 -11 -37 -24 -13 -13 -26 -22 -29 -19 -8 8
-47 -18 -41 -27 3 -6 0 -7 -7 -5 -8 3 -22 -1 -33 -10 -16 -12 -17 -14 -2 -9 9
3 34 0 55 -9 20 -8 53 -17 74 -21 33 -6 36 -5 31 14 -3 12 -2 20 3 18 5 -1 44
12 86 30 109 45 158 51 199 22 20 -15 30 -18 27 -9 -7 23 -98 79 -127 78 -14
0 -48 -6 -76 -13z m30 -33 c-50 -13 -94 -24 -100 -26 -5 -1 -12 2 -15 7 -10
18 142 58 185 47 12 -3 -17 -14 -70 -28z m-210 -63 c3 -5 1 -10 -4 -10 -6 0
-11 5 -11 10 0 6 2 10 4 10 3 0 8 -4 11 -10z"/>
<path d="M4482 5208 c-22 -27 -166 -111 -170 -99 -5 15 -96 56 -174 78 -48 13
-98 18 -213 17 -134 0 -159 -3 -240 -28 -285 -87 -545 -259 -714 -471 -84
-105 -171 -242 -196 -308 -63 -168 -70 -340 -20 -510 14 -48 25 -93 25 -100 0
-17 -367 -235 -560 -333 -41 -20 -77 -41 -80 -45 -3 -4 -38 23 -77 61 -143
137 -348 198 -633 187 -162 -6 -247 -22 -400 -74 -222 -75 -434 -200 -587
-347 -116 -110 -177 -189 -236 -304 -63 -122 -87 -206 -76 -262 14 -75 14 -75
-61 -108 l-70 -31 0 -70 c0 -69 1 -71 25 -71 14 0 48 11 76 25 46 24 50 24 55
8 38 -115 90 -222 151 -305 34 -46 34 -48 16 -67 -10 -11 -45 -66 -78 -123
-49 -85 -60 -111 -59 -146 1 -32 -2 -42 -12 -38 -15 6 -47 -50 -58 -100 -6
-26 -3 -34 19 -48 24 -16 25 -15 25 2 0 10 4 22 9 28 11 11 121 224 116 224
-2 0 -23 -31 -45 -70 -22 -38 -43 -70 -46 -70 -9 0 65 133 101 183 38 50 61
62 49 25 -3 -13 -44 -107 -89 -211 -46 -103 -79 -189 -75 -192 5 -3 28 -2 52
1 32 5 53 17 80 45 53 56 75 134 82 295 3 87 2 114 -4 84 -5 -25 -9 -65 -10
-90 -1 -25 -4 -39 -7 -32 -3 8 -2 56 2 108 l7 95 47 -44 c207 -193 502 -320
807 -347 117 -10 161 -20 90 -20 -34 0 -36 -2 -26 -20 9 -18 21 -20 99 -20
102 0 262 25 273 43 4 7 8 9 8 5 0 -11 182 54 200 72 3 3 25 16 50 29 25 13
54 31 65 40 11 10 39 30 63 46 24 15 46 34 50 40 4 7 17 17 30 24 12 6 22 17
22 24 0 8 -3 8 -9 -2 -6 -9 -10 -10 -12 -2 -3 7 -31 -8 -69 -37 -36 -26 -74
-51 -85 -55 -19 -6 -19 -6 -1 6 178 117 326 291 394 463 50 128 63 190 69 336
8 207 -11 305 -93 472 -35 72 -91 168 -124 214 -33 46 -56 81 -51 78 4 -3 19
6 32 20 32 35 132 102 304 203 186 110 225 134 256 154 l27 18 42 -78 c69
-125 113 -184 197 -264 173 -162 358 -262 561 -300 101 -19 299 -7 406 25 281
84 525 296 669 581 75 150 107 297 107 492 l0 145 33 -6 c17 -4 42 -7 54 -6
13 0 22 -6 20 -12 -3 -18 90 -18 105 -1 6 7 17 13 24 13 8 0 14 6 14 13 0 7
14 26 30 42 17 16 30 32 30 37 0 4 -19 8 -42 8 -36 0 -120 14 -274 45 -11 3
-26 16 -33 31 l-11 26 52 -7 c29 -4 91 -13 137 -21 81 -14 141 -18 141 -10 0
2 -7 21 -16 41 -10 25 -18 34 -23 26 -4 -7 -12 -11 -17 -10 -24 4 -34 -3 -34
-23 0 -25 -15 -14 -23 17 -4 18 -5 18 -6 -2 -2 -39 -21 -25 -21 15 l0 38 -100
3 c-89 2 -100 0 -100 -15 0 -9 -27 37 -60 102 -33 66 -85 151 -115 189 -97
126 -92 108 -45 151 22 21 46 47 52 58 6 12 7 18 3 14 -4 -4 -20 18 -34 49
-22 47 -28 53 -39 41z m-368 -38 c228 -61 391 -212 526 -485 82 -166 110 -268
117 -426 9 -204 -24 -364 -112 -539 -142 -281 -376 -480 -661 -562 -68 -20
-101 -23 -239 -22 -147 0 -167 3 -245 28 -160 53 -311 148 -459 290 -85 82
-134 151 -195 273 -74 148 -91 216 -91 373 0 159 11 212 70 335 127 266 356
491 652 639 233 118 440 149 637 96z m386 11 c0 -12 -28 -22 -34 -12 -3 5 -3
11 1 15 9 9 33 7 33 -3z m432 -745 c9 8 59 -19 55 -30 -7 -20 -58 -14 -82 10
-25 25 -22 39 5 24 10 -5 20 -7 22 -4z m88 -31 c-7 -9 -15 -13 -17 -11 -7 7 7
26 19 26 6 0 6 -6 -2 -15z m-3639 -800 c-51 -25 -97 -45 -102 -45 -4 0 -11 -5
-15 -11 -5 -9 1 -10 20 -5 18 4 25 3 21 -4 -3 -5 -10 -10 -15 -10 -13 0 -257
-138 -540 -305 -129 -76 -293 -172 -363 -214 -106 -62 -132 -82 -148 -113 -11
-22 -15 -38 -9 -38 12 0 85 42 410 235 113 67 232 137 265 155 33 18 116 73
185 121 124 87 334 220 399 253 55 29 25 0 -37 -34 -167 -94 -455 -304 -540
-393 -74 -79 -113 -146 -219 -375 -52 -114 -145 -312 -206 -441 -104 -221
-109 -236 -96 -259 8 -14 18 -25 23 -24 4 1 27 43 51 94 23 51 79 172 125 268
45 96 116 249 157 340 151 331 238 442 467 593 308 203 371 241 401 238 51 -4
187 -41 242 -66 177 -80 350 -259 439 -451 40 -85 40 -88 14 -116 -25 -28 -25
-54 1 -97 18 -30 24 -33 53 -28 l33 5 11 -71 c38 -249 2 -454 -114 -649 -142
-238 -435 -428 -749 -484 -104 -18 -325 -18 -440 1 -257 42 -499 167 -680 350
-143 144 -230 317 -259 512 -16 110 -11 180 21 278 97 304 445 606 867 754 96
34 285 71 401 79 11 1 -22 -19 -74 -43z m959 -624 c0 -5 -8 -12 -17 -15 -11
-3 -9 -4 6 -3 13 1 26 -3 28 -10 3 -7 -7 -11 -25 -11 -23 1 -29 5 -27 22 3 27
2 26 20 26 8 0 15 -4 15 -9z m-1922 -813 c-6 -18 -13 -27 -15 -21 -4 11 13 53
22 53 2 0 -1 -15 -7 -32z m1542 -383 c0 -2 -13 -11 -30 -20 -38 -19 -40 -11
-2 9 31 17 32 18 32 11z m-1780 -105 c0 -5 -4 -10 -9 -10 -6 0 -13 5 -16 10
-3 6 1 10 9 10 9 0 16 -4 16 -10z m117 -36 c-3 -3 -12 -4 -19 -1 -8 3 -5 6 6
6 11 1 17 -2 13 -5z m1236 -11 c-7 -2 -19 -2 -25 0 -7 3 -2 5 12 5 14 0 19 -2
13 -5z m-100 -10 c-7 -2 -19 -2 -25 0 -7 3 -2 5 12 5 14 0 19 -2 13 -5z
m-1166 -49 c-3 -3 -12 -4 -19 -1 -8 3 -5 6 6 6 11 1 17 -2 13 -5z"/>
<path d="M3905 5160 c-3 -5 -2 -10 4 -10 5 0 13 5 16 10 3 6 2 10 -4 10 -5 0
-13 -4 -16 -10z"/>
<path d="M3950 5159 c0 -5 5 -7 10 -4 6 3 10 8 10 11 0 2 -4 4 -10 4 -5 0 -10
-5 -10 -11z"/>
<path d="M3670 5039 c-622 -366 -740 -443 -771 -501 -16 -30 -7 -30 41 3 67
44 166 99 229 126 31 14 43 22 26 18 -29 -6 79 62 392 248 92 55 130 83 126
93 -3 8 1 14 11 14 9 0 16 5 16 10 0 6 7 10 16 10 8 0 12 -4 9 -10 -4 -6 1 -7
11 -3 15 6 15 7 -1 15 -14 9 -12 13 16 34 61 45 14 23 -121 -57z"/>
<path d="M3844 5094 c-18 -14 -18 -15 4 -4 12 6 22 13 22 15 0 8 -5 6 -26 -11z"/>
<path d="M3318 4713 c7 -3 16 -2 19 1 4 3 -2 6 -13 5 -11 0 -14 -3 -6 -6z"/>
<path d="M3405 4704 c-73 -12 -233 -57 -289 -83 -33 -15 -95 -49 -136 -74 -41
-26 -80 -47 -87 -47 -12 0 -43 -37 -43 -52 0 -11 85 28 182 83 221 126 424
162 715 124 134 -18 512 -80 588 -96 45 -10 205 -55 328 -93 l48 -14 -7 31
c-9 44 -10 45 -54 57 -49 13 -53 31 -5 20 33 -8 35 -7 29 13 -13 44 -17 45
-192 40 -141 -4 -188 -2 -297 16 -341 57 -458 72 -600 76 -82 2 -163 1 -180
-1z"/>
<path d="M4460 4489 c-13 -9 -12 -10 2 -5 26 8 137 -24 177 -51 20 -14 37 -20
39 -14 2 7 10 5 19 -5 8 -8 18 -12 21 -9 13 12 -27 34 -108 58 -116 35 -133
38 -150 26z"/>
<path d="M2984 4481 c-5 -5 -40 -20 -79 -34 -49 -17 -71 -30 -73 -43 -2 -15
-1 -16 7 -5 5 8 18 16 29 18 33 5 145 60 135 66 -6 4 -14 2 -19 -2z"/>
<path d="M2916 3694 c-9 -8 -16 -23 -15 -32 0 -13 3 -11 11 6 16 32 29 28 83
-27 64 -65 67 -73 52 -110 l-13 -32 -30 23 -29 22 24 -27 c17 -19 30 -25 47
-21 15 4 33 -2 53 -17 l31 -23 25 24 c14 13 25 28 25 34 0 10 -85 61 -101 61
-3 0 -25 24 -48 52 -23 29 -54 59 -70 68 -27 13 -31 13 -45 -1z"/>
<path d="M3096 3602 c-3 -5 1 -9 9 -9 8 0 15 4 15 9 0 4 -4 8 -9 8 -6 0 -12
-4 -15 -8z"/>
<path d="M1315 3613 c-56 -17 -78 -31 -69 -45 3 -5 11 -5 19 2 7 6 39 21 71
35 66 27 55 32 -21 8z"/>
<path d="M2250 3151 c0 -6 4 -13 10 -16 6 -3 7 1 4 9 -7 18 -14 21 -14 7z"/>
<path d="M2788 4492 c-7 -9 -56 -43 -108 -74 -52 -32 -147 -94 -210 -138 -63
-44 -146 -98 -185 -121 -188 -112 -251 -148 -267 -155 -43 -15 -9 8 115 81
126 74 189 115 443 285 150 100 158 106 99 74 -27 -15 -126 -77 -220 -139 -93
-62 -231 -149 -305 -193 -473 -280 -629 -372 -662 -389 l-37 -20 104 -7 c73
-5 112 -3 128 5 53 28 289 188 359 245 42 34 96 73 120 87 137 77 288 157 297
157 6 0 39 18 74 39 38 23 69 36 76 31 17 -10 117 45 124 68 3 9 12 34 22 56
l16 39 -58 -33 c-124 -71 -183 -102 -183 -97 0 5 200 124 225 133 9 4 25 24
36 45 20 41 19 51 -3 21z m-278 -216 c0 -2 -7 -7 -16 -10 -8 -3 -12 -2 -9 4 6
10 25 14 25 6z m-50 -32 c-8 -8 -23 -20 -34 -25 -13 -7 -9 -1 9 15 34 29 43
33 25 10z m-60 -38 c0 -2 -8 -10 -17 -17 -16 -13 -17 -12 -4 4 13 16 21 21 21
13z m-40 -31 c0 -2 -10 -9 -22 -15 -22 -11 -22 -10 -4 4 21 17 26 19 26 11z
m-84 -50 c-11 -8 -24 -15 -28 -15 -8 0 -125 -76 -195 -126 -13 -9 -23 -12 -23
-7 0 14 112 91 189 130 72 36 87 41 57 18z"/>
<path d="M2345 3171 c8 -14 65 -41 65 -32 0 14 -36 41 -54 41 -9 0 -15 -4 -11
-9z"/>
<path d="M2445 2970 c-3 -5 -1 -10 4 -10 6 0 11 -7 11 -16 0 -8 -4 -12 -10 -9
-12 7 -12 3 -4 -19 10 -25 34 -19 34 8 0 46 -19 71 -35 46z"/>
<path d="M88 2845 c-42 -28 -52 -41 -38 -50 12 -8 13 -55 1 -55 -5 0 -8 7 -7
16 2 28 -33 25 -40 -2 -8 -31 13 -57 42 -51 15 2 21 0 17 -9 -7 -18 16 -28 32
-14 18 15 21 55 3 44 -8 -5 -9 -2 -5 10 6 14 3 17 -9 12 -10 -4 -14 -2 -11 6
2 7 11 12 18 10 10 -2 10 1 -2 10 -16 13 -33 48 -23 48 3 0 14 -10 25 -22 10
-13 18 -18 19 -12 0 6 -7 17 -15 24 -15 12 -11 35 4 25 5 -2 16 4 26 15 24 27
8 24 -37 -5z"/>
<path d="M124 1549 c-3 -6 -1 -16 5 -22 9 -9 14 -8 21 3 5 8 10 18 10 23 0 11
-28 8 -36 -4z"/>
</g>
</svg>
