<?xml version="1.0" standalone="no"?>
<!DOCTYPE svg PUBLIC "-//W3C//DTD SVG 20010904//EN"
 "http://www.w3.org/TR/2001/REC-SVG-20010904/DTD/svg10.dtd">
<svg version="1.0" xmlns="http://www.w3.org/2000/svg"
 width="512.000000pt" height="512.000000pt" viewBox="0 0 512.000000 512.000000"
 preserveAspectRatio="xMidYMid meet">

<g transform="translate(0.000000,512.000000) scale(0.100000,-0.100000)"
fill="#000000" stroke="none">
<path d="M2410 5114 c-449 -30 -879 -173 -1245 -411 -162 -107 -261 -188 -415
-342 -411 -413 -652 -906 -731 -1501 -16 -122 -16 -478 0 -600 53 -398 187
-770 388 -1080 104 -159 198 -275 338 -416 142 -143 214 -205 362 -307 69 -49
82 -55 86 -40 4 14 5 13 6 -4 1 -26 136 -106 318 -187 184 -83 444 -163 587
-182 44 -6 48 -5 43 12 -11 38 -57 273 -81 419 -34 198 -62 428 -75 600 -6 77
-13 170 -16 206 l-6 65 93 27 c51 15 119 34 151 43 l57 15 0 79 0 79 138 3
c75 2 206 2 290 0 l152 -3 0 -79 0 -79 43 -11 c55 -14 251 -71 254 -74 6 -5
-29 -424 -48 -566 -28 -223 -100 -634 -126 -724 -5 -17 -1 -18 43 -12 143 19
416 104 600 187 103 46 311 160 324 177 3 4 18 15 35 24 143 80 462 373 597
548 291 378 464 797 529 1280 16 122 16 478 0 600 -65 483 -238 903 -529 1280
-85 109 -323 347 -432 432 -370 285 -783 459 -1244 523 -104 14 -388 26 -486
19z m-28 -1604 c112 -25 238 -27 339 -4 173 38 252 28 322 -43 73 -73 111
-251 105 -489 l-4 -140 48 33 c70 47 107 51 162 19 59 -34 101 -100 116 -181
28 -146 -41 -300 -161 -361 -43 -21 -49 -28 -50 -57 -1 -30 -1 -31 -9 -7 -4
14 -8 19 -9 12 -1 -8 -19 -60 -42 -117 -42 -109 -125 -247 -154 -258 -9 -4
-38 -7 -65 -7 l-48 0 -59 82 -58 82 -127 35 -127 35 -128 -35 -127 -34 -60
-82 -60 -83 -54 0 c-50 0 -57 3 -88 37 -40 44 -101 159 -140 266 -21 56 -31
72 -36 60 -5 -13 -7 -9 -7 14 -1 28 -7 36 -40 53 -98 49 -162 156 -169 280 -5
95 13 159 64 219 70 81 122 88 211 28 l48 -33 -3 135 c-7 210 26 393 83 471
65 88 156 108 327 70z m220 -1470 c21 0 78 -51 78 -69 0 -7 -41 -11 -120 -11
-81 0 -120 4 -120 11 0 6 14 24 30 39 29 27 69 41 98 33 8 -1 23 -3 34 -3z
m-674 -715 c-8 -8 -151 -55 -155 -51 -2 2 29 15 69 29 74 26 95 31 86 22z
m1355 -25 c38 -12 66 -24 64 -26 -5 -5 -148 43 -156 53 -3 3 1 4 9 1 8 -3 46
-15 83 -28z m-1543 -45 c-14 -8 -29 -14 -35 -14 -5 0 1 6 15 14 14 8 30 14 35
14 6 0 -1 -6 -15 -14z m1736 -34 c123 -59 195 -105 253 -161 40 -40 89 -125
78 -137 -3 -2 -10 11 -17 30 -27 84 -138 174 -324 263 -61 29 -106 53 -101 54
6 0 55 -22 111 -49z m-1871 -29 c-139 -73 -209 -127 -258 -202 -10 -13 -17
-20 -17 -14 0 26 71 99 150 155 43 30 191 108 205 108 6 0 -30 -21 -80 -47z
m-278 -254 c-3 -8 -6 -5 -6 6 -1 11 2 17 5 13 3 -3 4 -12 1 -19z m-10 -40 c-3
-8 -6 -5 -6 6 -1 11 2 17 5 13 3 -3 4 -12 1 -19z m-28 -112 c-12 -48 -23 -85
-26 -83 -2 3 6 43 18 91 12 48 23 85 26 83 2 -3 -6 -43 -18 -91z m-32 -118
c-3 -8 -6 -5 -6 6 -1 11 2 17 5 13 3 -3 4 -12 1 -19z m-13 -62 c-3 -21 -8 -35
-11 -32 -2 2 -1 20 3 40 3 21 8 35 11 32 2 -2 1 -20 -3 -40z m-20 -90 c-3 -21
-8 -35 -11 -32 -2 2 -1 20 3 40 3 21 8 35 11 32 2 -2 1 -20 -3 -40z m2693 22
c-3 -8 -6 -5 -6 6 -1 11 2 17 5 13 3 -3 4 -12 1 -19z m10 -40 c-3 -8 -6 -5 -6
6 -1 11 2 17 5 13 3 -3 4 -12 1 -19z m-2720 -50 c-3 -8 -6 -5 -6 6 -1 11 2 17
5 13 3 -3 4 -12 1 -19z m2730 0 c-3 -8 -6 -5 -6 6 -1 11 2 17 5 13 3 -3 4 -12
1 -19z"/>
</g>
</svg>
