<?xml version="1.0" standalone="no"?>
<!DOCTYPE svg PUBLIC "-//W3C//DTD SVG 20010904//EN"
 "http://www.w3.org/TR/2001/REC-SVG-20010904/DTD/svg10.dtd">
<svg version="1.0" xmlns="http://www.w3.org/2000/svg"
 width="512.000000pt" height="512.000000pt" viewBox="0 0 512.000000 512.000000"
 preserveAspectRatio="xMidYMid meet">

<g transform="translate(0.000000,512.000000) scale(0.100000,-0.100000)"
fill="#000000" stroke="none">
<path d="M2400 4960 c-301 -42 -558 -168 -765 -375 -191 -190 -319 -438 -363
-700 -15 -91 -19 -102 -54 -138 -53 -55 -60 -87 -56 -273 3 -156 4 -162 30
-202 15 -22 49 -53 75 -69 47 -27 52 -28 228 -32 l180 -3 50 -106 c75 -158
154 -273 274 -393 l106 -106 -255 -6 c-282 -6 -323 -13 -446 -73 -38 -19 -92
-54 -120 -79 l-49 -44 1325 0 1325 0 -49 44 c-28 25 -82 60 -120 79 -118 58
-172 67 -451 73 l-250 5 106 107 c120 120 199 234 274 393 l50 106 180 3 c176
4 181 5 228 32 26 16 60 47 75 69 26 40 27 46 30 202 4 186 -3 218 -56 273
-35 36 -39 47 -54 138 -44 262 -172 510 -363 700 -180 181 -410 305 -656 355
-118 24 -327 34 -429 20z m381 -164 c362 -70 671 -312 830 -651 37 -78 84
-235 91 -300 l3 -30 -90 0 -90 0 -25 96 c-125 465 -522 767 -980 746 -185 -8
-319 -52 -480 -155 -204 -131 -365 -361 -421 -599 l-21 -93 -89 0 -89 0 0 33
c0 52 47 214 89 303 162 344 495 600 851 653 41 6 86 13 100 15 45 8 244 -3
321 -18z m507 -749 c63 -127 83 -211 89 -367 4 -102 1 -157 -11 -224 -50 -265
-171 -502 -346 -677 -154 -154 -288 -219 -456 -219 -165 0 -301 60 -447 199
-58 55 -152 170 -144 177 3 3 24 0 47 -6 23 -6 92 -18 153 -26 61 -8 111 -15
112 -17 1 -1 14 -23 28 -49 49 -86 146 -134 251 -126 258 21 335 341 113 468
-131 75 -301 28 -371 -103 l-18 -33 -70 8 c-97 10 -168 25 -274 59 -91 29 -92
29 -112 77 -33 78 -69 202 -82 284 -15 90 -9 309 10 386 12 47 17 53 49 63 20
6 95 13 166 16 115 4 140 2 220 -20 50 -13 124 -37 165 -53 65 -25 89 -28 180
-28 193 0 390 76 605 234 44 32 85 59 91 59 6 1 29 -36 52 -82z"/>
<path d="M743 2196 c-125 -40 -217 -150 -237 -286 -3 -19 16 -386 42 -815 27
-429 47 -783 45 -787 -2 -5 -91 -8 -196 -8 -209 0 -228 -4 -241 -55 -7 -29 15
-79 39 -89 22 -8 4708 -8 4730 0 24 10 46 60 39 89 -13 51 -32 55 -241 55
-105 0 -194 3 -196 8 -2 4 18 360 45 792 50 832 50 837 7 927 -25 52 -106 128
-167 156 l-47 22 -1790 2 c-1454 1 -1798 -1 -1832 -11z m1999 -659 c356 -176
272 -704 -121 -768 -227 -36 -448 138 -468 367 -16 190 87 352 267 422 45 18
73 21 151 19 88 -2 101 -5 171 -40z"/>
</g>
</svg>
