<?xml version="1.0" standalone="no"?>
<!DOCTYPE svg PUBLIC "-//W3C//DTD SVG 20010904//EN"
 "http://www.w3.org/TR/2001/REC-SVG-20010904/DTD/svg10.dtd">
<svg version="1.0" xmlns="http://www.w3.org/2000/svg"
 width="768.000000pt" height="432.000000pt" viewBox="0 0 768.000000 432.000000"
 preserveAspectRatio="xMidYMid meet">

<g transform="translate(0.000000,432.000000) scale(0.100000,-0.100000)"
fill="#000000" stroke="none">
<path d="M2839 2512 c11 -8 11 -10 0 -14 -16 -6 63 -16 163 -23 56 -3 66 -2
61 10 -6 18 -17 19 -43 3 -15 -10 -23 -9 -40 7 -18 16 -23 17 -45 5 -17 -9
-28 -10 -37 -3 -7 6 -26 13 -43 17 -19 4 -25 3 -16 -2z"/>
<path d="M4798 2502 c-23 -14 -31 -14 -52 -3 -21 12 -27 11 -41 -3 -18 -18
-45 -22 -45 -6 0 16 -37 12 -43 -5 -5 -12 7 -14 76 -9 123 8 163 16 146 31
-11 9 -20 8 -41 -5z"/>
<path d="M3103 2493 c19 -5 23 -19 6 -25 -7 -2 4 -4 24 -4 24 0 32 3 24 9 -7
5 8 6 38 3 32 -3 41 -2 25 3 -14 4 -50 10 -80 13 -30 3 -47 3 -37 1z"/>
<path d="M4511 2489 c-79 -10 -105 -21 -33 -14 33 4 51 2 48 -3 -3 -6 5 -9 19
-8 14 0 25 6 25 13 0 6 8 14 18 16 26 7 -5 6 -77 -4z"/>
<path d="M3285 2460 c11 -5 31 -8 45 -8 l25 0 -25 8 c-14 4 -34 8 -45 8 l-20
1 20 -9z"/>
<path d="M4355 2460 l-30 -8 30 -1 c17 0 37 4 45 9 13 9 13 10 0 9 -8 -1 -28
-5 -45 -9z"/>
<path d="M3372 2436 c8 -7 23 -16 34 -20 10 -3 24 -16 29 -28 6 -11 20 -25 33
-29 19 -7 21 -6 13 9 -12 23 -40 46 -78 66 -39 20 -49 20 -31 2z"/>
<path d="M4280 2434 c-19 -9 -48 -31 -64 -51 l-29 -34 34 14 c21 8 33 20 33
31 -1 9 8 19 22 22 13 3 28 12 35 20 14 17 13 17 -31 -2z"/>
<path d="M4195 2317 c-12 -9 -14 -16 -7 -21 6 -3 16 3 22 14 13 24 10 25 -15
7z"/>
<path d="M3470 2311 c0 -5 7 -11 15 -15 9 -3 15 0 15 9 0 8 -7 15 -15 15 -8 0
-15 -4 -15 -9z"/>
<path d="M3662 2271 c-5 -3 77 -6 184 -6 107 0 194 3 194 8 0 9 -363 8 -378
-2z"/>
<path d="M4178 2273 c7 -3 16 -2 19 1 4 3 -2 6 -13 5 -11 0 -14 -3 -6 -6z"/>
<path d="M3588 2263 c6 -2 18 -2 25 0 6 3 1 5 -13 5 -14 0 -19 -2 -12 -5z"/>
<path d="M4063 2263 c9 -2 23 -2 30 0 6 3 -1 5 -18 5 -16 0 -22 -2 -12 -5z"/>
<path d="M3818 2243 c12 -2 30 -2 40 0 9 3 -1 5 -23 4 -22 0 -30 -2 -17 -4z"/>
<path d="M6852 2220 c0 -19 2 -27 5 -17 2 9 2 25 0 35 -3 9 -5 1 -5 -18z"/>
<path d="M1323 2139 c6 -65 10 -75 26 -64 15 9 14 98 -1 113 -24 24 -31 11
-25 -49z"/>
<path d="M6335 2183 c-13 -12 -16 -28 -12 -60 5 -50 14 -64 27 -43 9 15 14
120 6 120 -3 0 -12 -8 -21 -17z"/>
<path d="M4212 2120 c0 -14 2 -19 5 -12 2 6 2 18 0 25 -3 6 -5 1 -5 -13z"/>
<path d="M3462 2100 c0 -14 2 -19 5 -12 2 6 2 18 0 25 -3 6 -5 1 -5 -13z"/>
<path d="M1590 2092 c0 -7 5 -12 11 -12 5 0 7 -4 4 -10 -3 -5 -14 -10 -23 -10
-20 0 -46 -50 -33 -63 5 -5 7 -16 4 -25 -5 -11 -3 -13 7 -7 9 6 11 4 6 -4 -5
-7 -2 -20 6 -29 8 -9 30 -44 50 -77 19 -33 94 -160 167 -282 72 -122 143 -235
157 -252 40 -48 66 -38 79 29 4 19 9 47 12 61 3 15 -1 37 -8 50 -41 78 -371
570 -386 576 -7 3 -13 11 -13 18 0 6 -9 20 -20 30 -11 10 -20 13 -20 7z"/>
<path d="M4221 2074 c0 -11 3 -14 6 -6 3 7 2 16 -1 19 -3 4 -6 -2 -5 -13z"/>
<path d="M6004 1995 c-106 -150 -334 -502 -350 -542 -9 -19 -12 -43 -8 -52 16
-35 13 -61 -7 -61 -14 0 -19 7 -19 25 0 14 -5 25 -11 25 -6 0 -9 -14 -7 -32 3
-28 7 -32 32 -34 16 0 33 -8 38 -18 14 -24 34 -20 68 15 16 18 30 27 30 20 0
-6 5 -11 10 -11 6 0 10 15 10 33 0 24 39 98 151 287 83 140 162 269 175 287
13 17 24 35 24 40 0 4 -5 1 -11 -7 -8 -12 -10 -12 -7 5 2 10 18 30 37 42 l34
23 -31 -6 c-19 -4 -32 -2 -32 3 0 6 -11 8 -24 6 -21 -4 -25 -1 -28 23 -3 27
-9 21 -74 -71z"/>
<path d="M3319 1718 c-6 -22 -5 -39 3 -45 7 -4 9 1 6 15 -3 12 -1 23 6 26 7 3
7 5 -1 5 -7 1 -13 0 -14 -1z"/>
<path d="M4348 1711 c8 -4 13 -11 13 -15 -3 -19 0 -26 10 -26 8 0 8 5 -1 15
-10 12 -10 15 1 15 11 0 11 2 -1 10 -8 5 -19 10 -25 10 -5 0 -4 -4 3 -9z"/>
<path d="M6027 1393 c-68 -4 -68 -4 -65 -31 3 -26 5 -27 73 -28 l70 -1 -65 6
c-59 5 -62 7 -31 14 18 4 48 8 65 9 17 1 2 4 -34 8 l-65 7 63 1 c34 1 62 7 62
12 0 6 -1 9 -2 8 -2 -1 -34 -3 -71 -5z"/>
<path d="M4905 1380 c-7 -12 2 -16 70 -29 l50 -10 -62 4 c-38 3 -63 1 -63 -5
0 -6 31 -10 71 -10 62 0 70 2 67 18 -2 13 -16 18 -63 22 l-60 4 65 6 65 7 -67
1 c-37 1 -70 -3 -73 -8z"/>
<path d="M5085 1381 c21 -4 31 -13 33 -29 4 -27 22 -29 22 -2 0 16 7 20 35 20
19 0 35 5 35 10 0 6 -32 10 -77 9 -50 -1 -67 -4 -48 -8z"/>
<path d="M5290 1360 c0 -16 3 -30 8 -30 4 -1 31 -3 60 -6 31 -2 52 0 52 6 0 5
-22 10 -50 10 -47 0 -50 2 -50 25 0 14 -4 25 -10 25 -5 0 -10 -13 -10 -30z"/>
<path d="M5433 1374 c-2 -7 -3 -21 -1 -31 3 -15 14 -18 73 -18 l70 0 0 30 0
30 -68 1 c-48 1 -70 -3 -74 -12z m127 -19 c0 -12 -13 -15 -55 -15 -42 0 -55 3
-55 15 0 12 13 15 55 15 42 0 55 -3 55 -15z"/>
<path d="M5817 1383 c-4 -3 -7 -12 -7 -20 0 -9 18 -13 63 -15 l62 -1 -65 -7
-65 -7 69 1 c46 1 71 5 74 14 3 9 -13 12 -59 12 -75 0 -73 7 7 19 l59 9 -66 1
c-36 0 -69 -2 -72 -6z"/>
<path d="M5220 1329 c0 -5 5 -7 10 -4 6 3 10 8 10 11 0 2 -4 4 -10 4 -5 0 -10
-5 -10 -11z"/>
<path d="M5121 1254 c0 -11 3 -14 6 -6 3 7 2 16 -1 19 -3 4 -6 -2 -5 -13z"/>
<path d="M5210 1255 c0 -8 4 -15 10 -15 5 0 7 7 4 15 -4 8 -8 15 -10 15 -2 0
-4 -7 -4 -15z"/>
<path d="M5270 1249 c0 -5 5 -7 10 -4 6 3 10 8 10 11 0 2 -4 4 -10 4 -5 0 -10
-5 -10 -11z"/>
<path d="M5320 1243 c0 -15 2 -15 9 -4 5 8 16 11 26 8 9 -4 14 -3 10 3 -11 17
-45 11 -45 -7z"/>
<path d="M5387 1253 c-4 -3 -7 -11 -7 -17 0 -6 5 -5 12 2 6 6 9 14 7 17 -3 3
-9 2 -12 -2z"/>
<path d="M5435 1251 c-3 -5 -1 -12 5 -16 5 -3 10 1 10 9 0 18 -6 21 -15 7z"/>
<path d="M5560 1250 c0 -5 5 -10 10 -10 6 0 10 5 10 10 0 6 -4 10 -10 10 -5 0
-10 -4 -10 -10z"/>
<path d="M5660 1250 c0 -5 5 -10 10 -10 6 0 10 5 10 10 0 6 -4 10 -10 10 -5 0
-10 -4 -10 -10z"/>
<path d="M5741 1244 c0 -11 3 -14 6 -6 3 7 2 16 -1 19 -3 4 -6 -2 -5 -13z"/>
<path d="M5845 1250 c-3 -5 -1 -10 4 -10 6 0 11 5 11 10 0 6 -2 10 -4 10 -3 0
-8 -4 -11 -10z"/>
<path d="M5890 1250 c0 -5 5 -10 11 -10 5 0 7 5 4 10 -3 6 -8 10 -11 10 -2 0
-4 -4 -4 -10z"/>
</g>
</svg>
