<?xml version="1.0" standalone="no"?>
<!DOCTYPE svg PUBLIC "-//W3C//DTD SVG 20010904//EN"
 "http://www.w3.org/TR/2001/REC-SVG-20010904/DTD/svg10.dtd">
<svg version="1.0" xmlns="http://www.w3.org/2000/svg"
 width="768.000000pt" height="432.000000pt" viewBox="0 0 768.000000 432.000000"
 preserveAspectRatio="xMidYMid meet">

<g transform="translate(0.000000,432.000000) scale(0.100000,-0.100000)"
fill="#000000" stroke="none">
<path d="M1770 2884 c-312 -21 -397 -28 -531 -45 -213 -27 -380 -56 -393 -69
-7 -7 -11 -72 -11 -177 0 -152 2 -167 19 -177 46 -27 83 -68 94 -103 6 -21 23
-108 37 -193 66 -398 137 -646 243 -855 106 -208 277 -308 609 -357 122 -18
728 -18 842 0 405 64 638 346 902 1091 80 226 90 235 264 236 120 0 164 -13
198 -60 9 -13 41 -93 71 -177 125 -359 275 -658 414 -825 100 -121 268 -219
437 -256 92 -20 128 -21 455 -22 295 0 374 3 469 18 221 35 374 101 477 206
140 141 263 500 344 1008 12 70 26 146 31 168 14 52 50 99 88 115 l31 12 0
173 0 173 -32 11 c-46 14 -259 48 -413 65 -291 33 -431 41 -795 41 -381 0
-515 -8 -810 -46 -297 -38 -379 -61 -465 -129 -129 -102 -177 -113 -495 -113
-321 0 -378 12 -483 100 -65 56 -150 90 -276 112 -153 28 -430 58 -636 71
-153 9 -569 11 -685 4z m675 -164 c464 -30 680 -88 807 -214 97 -97 130 -193
130 -376 0 -296 -144 -662 -344 -876 -32 -33 -55 -63 -53 -66 8 -8 -26 -33
-44 -33 -9 0 -15 -6 -13 -13 1 -8 -2 -11 -7 -7 -6 3 -32 -5 -59 -19 -118 -60
-271 -86 -538 -93 -424 -11 -714 51 -845 181 -141 139 -243 501 -274 977 -7
96 -7 96 21 118 17 13 40 21 63 20 20 -1 29 -3 20 -6 -12 -3 -2 -18 40 -62 31
-32 79 -97 106 -145 152 -263 397 -632 449 -675 45 -37 96 24 96 114 0 60 -17
125 -32 125 -6 0 -9 2 -6 5 3 3 -13 25 -36 49 -48 51 -66 73 -66 81 0 4 -22
30 -50 58 -27 28 -50 56 -50 62 0 6 -9 16 -20 23 -12 7 -18 17 -15 21 3 5 2
11 -3 13 -4 1 -33 44 -65 93 -32 50 -66 99 -75 110 -9 11 -22 32 -29 46 -16
36 -128 154 -177 188 -23 15 -54 33 -71 38 -16 6 -37 14 -46 18 -12 5 -20 -1
-28 -22 -9 -26 -10 -25 -5 12 18 122 106 184 315 219 74 13 136 19 384 39 93
8 381 6 520 -3z m3545 -14 c258 -28 364 -60 424 -127 37 -40 67 -121 65 -173
-1 -23 -3 -19 -9 17 -5 27 -11 51 -13 53 -3 3 -20 -2 -38 -10 -19 -8 -49 -20
-68 -27 -37 -14 -163 -136 -203 -196 -13 -21 -56 -84 -94 -141 -38 -57 -76
-115 -84 -130 -9 -15 -24 -38 -35 -51 -69 -83 -81 -97 -92 -104 -7 -4 -13 -12
-13 -16 0 -9 -20 -34 -87 -111 -53 -61 -65 -167 -27 -242 11 -21 22 -28 44
-28 26 0 39 14 120 126 118 162 221 320 300 459 79 138 113 188 168 247 30 33
39 48 31 54 -25 15 26 22 60 8 18 -8 35 -14 36 -14 2 0 2 16 0 35 -2 21 1 33
7 29 14 -9 3 -317 -17 -454 -44 -310 -126 -559 -223 -679 -122 -150 -419 -220
-881 -208 -259 7 -420 35 -534 94 -15 7 -32 11 -38 8 -5 -4 -8 -1 -7 6 2 6 -3
14 -11 17 -9 3 -11 0 -6 -9 7 -12 5 -12 -6 -1 -8 7 -14 16 -14 20 0 4 -28 34
-61 67 -208 208 -374 609 -374 905 0 253 103 412 321 494 113 42 318 75 594
96 165 12 601 4 765 -14z m-4840 -121 l0 -25 -130 0 -130 0 0 25 0 25 130 0
130 0 0 -25z m5660 0 l0 -25 -135 0 -135 0 0 25 0 25 135 0 135 0 0 -25z
m-5588 -226 c-1 -22 -3 -44 -6 -47 -3 -3 -6 19 -6 48 0 29 3 51 6 47 4 -3 6
-25 6 -48z m213 -1147 c57 -63 111 -96 219 -133 44 -16 75 -28 68 -29 -8 0
-48 12 -90 26 -89 31 -170 81 -212 132 -30 37 -100 163 -100 178 1 5 16 -20
35 -56 18 -36 54 -89 80 -118z m4894 77 c-27 -55 -103 -134 -155 -165 -44 -26
-177 -74 -203 -74 -9 1 25 14 76 31 118 38 195 94 254 183 24 36 45 66 46 66
2 0 -6 -19 -18 -41z m-4556 -246 c-7 -2 -19 -2 -25 0 -7 3 -2 5 12 5 14 0 19
-2 13 -5z m50 -10 c-7 -2 -19 -2 -25 0 -7 3 -2 5 12 5 14 0 19 -2 13 -5z
m4070 0 c-7 -2 -19 -2 -25 0 -7 3 -2 5 12 5 14 0 19 -2 13 -5z m-4005 -10
c-10 -2 -26 -2 -35 0 -10 3 -2 5 17 5 19 0 27 -2 18 -5z m3945 0 c-7 -2 -21
-2 -30 0 -10 3 -4 5 12 5 17 0 24 -2 18 -5z m-3855 -10 c-10 -2 -28 -2 -40 0
-13 2 -5 4 17 4 22 1 32 -1 23 -4z m565 0 c-7 -2 -21 -2 -30 0 -10 3 -4 5 12
5 17 0 24 -2 18 -5z m2624 1 c-3 -3 -12 -4 -19 -1 -8 3 -5 6 6 6 11 1 17 -2
13 -5z m596 -1 c-13 -2 -33 -2 -45 0 -13 2 -3 4 22 4 25 0 35 -2 23 -4z
m-3630 -10 c-23 -2 -64 -2 -90 0 -26 2 -7 3 42 3 50 0 71 -1 48 -3z m220 0
c-7 -2 -19 -2 -25 0 -7 3 -2 5 12 5 14 0 19 -2 13 -5z m80 0 c-7 -2 -19 -2
-25 0 -7 3 -2 5 12 5 14 0 19 -2 13 -5z m2860 0 c-7 -2 -19 -2 -25 0 -7 3 -2
5 12 5 14 0 19 -2 13 -5z m70 0 c-7 -2 -19 -2 -25 0 -7 3 -2 5 12 5 14 0 19
-2 13 -5z m290 0 c-23 -2 -64 -2 -90 0 -26 2 -7 3 42 3 50 0 71 -1 48 -3z"/>
<path d="M2959 1173 c-13 -16 -12 -17 4 -4 16 13 21 21 13 21 -2 0 -10 -8 -17
-17z"/>
</g>
</svg>
