<?xml version="1.0" standalone="no"?>
<!DOCTYPE svg PUBLIC "-//W3C//DTD SVG 20010904//EN"
 "http://www.w3.org/TR/2001/REC-SVG-20010904/DTD/svg10.dtd">
<svg version="1.0" xmlns="http://www.w3.org/2000/svg"
 width="768.000000pt" height="432.000000pt" viewBox="0 0 768.000000 432.000000"
 preserveAspectRatio="xMidYMid meet">

<g transform="translate(0.000000,432.000000) scale(0.100000,-0.100000)"
fill="#000000" stroke="none">
<path d="M2200 2690 c293 -16 567 -49 581 -72 3 -5 10 -8 15 -7 12 3 64 -10
90 -23 12 -5 33 -11 48 -11 14 -1 26 -6 26 -10 0 -5 5 -5 10 -2 6 3 10 1 10
-5 0 -7 7 -9 16 -6 9 4 13 2 8 -5 -4 -8 1 -9 16 -4 15 5 20 4 16 -4 -5 -7 -1
-8 10 -4 12 4 15 3 10 -5 -5 -8 -1 -10 10 -5 11 4 15 2 11 -4 -4 -6 17 -25 46
-42 32 -19 42 -23 27 -10 -14 12 -20 20 -13 18 18 -6 161 -167 168 -190 4 -11
11 -17 16 -14 5 3 6 -1 2 -11 -5 -12 -2 -15 13 -11 39 11 225 39 230 34 3 -2
-16 -8 -41 -12 -26 -3 -45 -8 -43 -11 3 -2 49 3 104 11 54 8 133 14 174 14
l75 -2 -100 -13 c-55 -8 -149 -21 -210 -30 -60 -9 -126 -19 -146 -21 l-37 -5
15 -51 c8 -29 17 -102 20 -163 5 -92 3 -116 -10 -134 -8 -12 -13 -29 -10 -36
3 -8 1 -14 -5 -14 -5 0 -12 -9 -15 -20 -4 -14 -10 -18 -23 -13 -12 4 -15 3
-10 -5 4 -7 -3 -28 -15 -48 -15 -26 -24 -32 -30 -23 -4 7 -6 16 -3 20 2 4 -3
9 -11 13 -29 11 -15 -22 25 -58 41 -37 60 -45 60 -24 0 6 2 9 4 7 5 -5 -30
-116 -63 -197 -12 -30 -18 -58 -15 -64 4 -6 2 -8 -4 -4 -10 6 -28 -30 -24 -46
1 -5 -3 -8 -9 -8 -6 0 -8 -7 -5 -16 3 -8 2 -12 -3 -9 -5 3 -13 -5 -17 -17 -4
-13 -18 -41 -32 -63 -14 -22 -25 -45 -25 -52 0 -7 -3 -10 -7 -8 -4 3 -19 -9
-33 -25 -17 -19 -22 -30 -14 -34 7 -2 4 -5 -6 -5 -10 -1 -16 -4 -14 -8 6 -11
-19 -34 -27 -25 -4 3 -17 -6 -30 -21 -13 -15 -27 -23 -31 -19 -5 4 -4 1 0 -7
6 -11 4 -13 -9 -8 -9 4 -14 3 -11 -2 5 -9 -32 -27 -48 -23 -5 1 -6 -1 -3 -6 7
-11 -61 -35 -75 -26 -7 4 -9 3 -5 -4 3 -6 -3 -13 -14 -16 -11 -3 -30 -9 -41
-12 -13 -4 -19 -2 -16 3 4 6 -5 8 -21 5 -24 -5 -25 -6 -7 -14 15 -6 11 -7 -13
-3 -20 3 -31 1 -27 -5 4 -6 -7 -7 -27 -4 -26 5 -30 3 -18 -6 12 -10 11 -11
-10 -6 -13 3 -72 -2 -130 -11 -81 -12 -151 -14 -310 -10 -413 12 -651 84 -807
243 -39 41 -77 74 -83 74 -6 0 -8 5 -5 10 3 6 1 10 -5 10 -6 0 -8 5 -4 12 4 6
3 8 -3 5 -5 -3 -17 11 -27 31 -10 20 -22 45 -27 55 -24 46 -59 153 -54 165 2
7 1 11 -3 8 -12 -7 -34 86 -26 110 5 16 4 17 -6 4 -9 -12 -10 -7 -6 25 4 30 3
35 -4 20 -7 -15 -9 -9 -5 25 4 34 3 40 -5 25 -8 -15 -9 -8 -6 30 4 38 3 44 -4
25 -8 -20 -9 -16 -5 20 2 25 -1 92 -6 150 -11 111 -2 273 12 215 7 -30 7 -30
8 7 0 20 4 45 7 55 3 10 -1 8 -11 -7 -13 -20 -15 -21 -11 -5 2 11 8 36 11 55
13 65 61 155 108 201 61 62 187 122 297 143 47 9 108 21 135 26 46 9 45 9 -15
3 -36 -4 -79 -7 -97 -7 -17 -1 -29 -4 -27 -8 2 -3 -15 -9 -37 -13 -23 -4 -57
-14 -76 -21 -19 -8 -39 -12 -45 -8 -7 5 -8 2 -3 -6 5 -8 3 -11 -5 -8 -8 2 -21
-2 -29 -9 -30 -27 -93 -64 -99 -58 -3 3 0 5 6 5 7 0 12 5 12 12 0 6 -12 1 -26
-13 -34 -31 -73 -85 -53 -74 7 4 2 -3 -12 -17 -14 -13 -34 -49 -43 -79 -9 -30
-22 -62 -27 -73 -6 -10 -6 -16 -1 -12 5 3 5 -10 -1 -32 l-10 -37 -74 2 c-44 1
-80 6 -87 13 -8 9 -8 14 2 17 6 3 12 11 12 20 0 12 13 14 70 11 39 -2 70 0 70
3 0 4 -52 10 -116 14 -93 6 -118 4 -125 -6 -12 -19 -11 -122 1 -153 9 -25 11
-25 127 -28 l118 -3 7 -113 c19 -337 97 -599 231 -775 153 -202 419 -301 848
-314 349 -11 669 52 846 166 116 75 229 237 306 438 81 211 95 253 86 247 -5
-3 -9 1 -9 9 0 8 -7 20 -15 27 -8 7 -15 18 -15 24 0 6 5 3 11 -6 14 -24 24
-22 26 5 6 64 11 85 28 105 33 38 34 24 4 -38 -32 -67 -35 -80 -16 -80 16 0
57 82 57 115 0 26 -34 53 -45 35 -12 -20 -24 1 -15 26 18 46 7 199 -13 187 -6
-4 -8 0 -4 11 4 10 7 26 7 36 0 25 39 36 200 56 160 19 428 15 584 -10 100
-16 131 -29 119 -49 -4 -6 -9 -65 -12 -131 -5 -107 -8 -119 -25 -122 -23 -3
-36 -22 -35 -49 0 -16 3 -15 10 7 l10 26 25 -23 c24 -23 33 -55 14 -55 -6 0
-17 15 -25 33 -16 37 -20 22 -5 -20 9 -26 9 -27 -5 -9 -22 29 -18 10 6 -34 15
-26 27 -36 37 -32 12 4 14 -1 9 -32 -4 -25 -2 -34 5 -30 7 4 8 2 4 -4 -16 -26
126 -378 147 -365 6 3 7 1 3 -6 -11 -18 79 -156 148 -226 138 -140 412 -221
788 -232 293 -9 538 28 727 110 19 8 36 22 37 31 3 20 4 21 -64 -8 -162 -68
-381 -101 -662 -100 -222 1 -323 13 -477 54 -40 11 -80 17 -89 13 -12 -4 -15
-3 -10 5 5 8 1 10 -10 5 -11 -4 -15 -3 -11 4 5 7 -1 9 -15 5 -14 -3 -19 -1
-14 6 5 8 2 10 -8 6 -9 -3 -16 -2 -16 4 0 5 -11 13 -25 16 -14 4 -25 11 -25
16 0 6 -4 10 -10 10 -5 0 -37 26 -71 58 -34 31 -67 55 -73 54 -6 -2 -8 0 -4 4
4 4 -8 28 -26 53 -40 55 -76 124 -126 244 -20 48 -40 84 -45 80 -4 -5 -5 -3
-1 4 3 6 1 33 -6 59 -12 45 -12 47 12 63 42 27 70 59 70 81 0 11 -5 20 -11 20
-5 0 -8 -3 -6 -7 3 -5 1 -19 -4 -32 l-9 -24 -24 34 c-20 30 -22 37 -10 55 12
19 11 23 -7 27 -17 4 -18 3 -8 -9 9 -11 8 -14 -4 -14 -8 0 -17 7 -21 15 -3 8
-10 15 -16 15 -13 0 -13 -33 0 -46 7 -7 7 -11 -3 -11 -16 0 -21 45 -6 63 9 11
7 20 -5 39 -13 20 -15 44 -11 132 2 59 11 133 19 163 9 30 14 55 13 56 -4 3
-270 43 -377 56 -96 12 -100 13 -50 16 30 2 96 -1 145 -7 50 -6 100 -8 112 -5
20 6 131 -9 177 -23 15 -4 18 -2 13 11 -4 10 -3 15 1 12 9 -5 45 49 40 59 -2
4 5 11 15 16 9 6 17 17 17 25 0 8 4 13 9 10 9 -6 34 18 27 25 -2 2 2 10 10 17
8 7 14 10 14 6 0 -3 8 2 18 13 9 10 13 12 7 4 -7 -10 -2 -10 18 3 24 17 41 36
17 21 -5 -3 -10 -4 -10 -1 0 3 10 10 21 17 15 7 19 8 15 0 -4 -7 -1 -9 8 -5 9
3 14 11 13 16 -1 6 4 13 12 16 9 3 11 0 6 -8 -6 -9 -2 -9 16 0 35 18 38 23 9
16 -21 -6 -22 -5 -7 4 10 7 25 9 33 6 10 -4 12 -2 8 6 -5 8 -2 9 9 5 10 -3 17
-2 17 3 0 6 3 9 8 9 27 -5 52 2 46 13 -4 6 -3 8 3 5 5 -3 29 1 54 10 24 9 78
24 119 34 41 9 66 18 55 18 -35 1 -227 -46 -300 -74 -38 -15 -78 -27 -87 -28
-9 -1 -15 -4 -12 -8 2 -4 -3 -10 -12 -13 -10 -4 -13 -2 -9 7 4 6 0 4 -8 -5 -8
-10 -18 -14 -22 -10 -5 4 -5 2 -2 -4 4 -7 -6 -17 -23 -24 -16 -7 -27 -16 -24
-21 3 -5 -2 -9 -11 -9 -10 0 -13 -5 -9 -12 5 -8 2 -9 -9 -5 -9 3 -19 1 -23 -5
-4 -7 -3 -8 4 -4 17 11 15 -9 -3 -24 -8 -7 -15 -9 -15 -5 0 5 -9 0 -19 -9 -11
-10 -17 -25 -14 -34 4 -10 2 -13 -6 -8 -6 4 -10 4 -9 -1 5 -19 -14 -51 -36
-61 -18 -8 -45 -7 -104 3 -259 45 -601 41 -844 -11 -21 -4 -34 1 -53 20 -14
15 -23 31 -20 36 4 6 1 9 -7 8 -7 -2 -13 5 -13 14 0 19 -12 33 -27 33 -6 0
-13 6 -16 14 -3 9 0 11 9 6 8 -5 5 1 -5 13 -11 12 -25 22 -33 22 -8 0 -12 4
-9 8 3 5 -7 15 -22 23 -15 8 -33 21 -40 29 -12 13 -13 13 -7 0 6 -13 5 -13 -7
0 -7 8 -20 16 -28 18 -8 2 -17 7 -20 10 -3 4 -9 8 -15 9 -5 2 -47 16 -92 32
-179 65 -470 109 -758 116 l-190 4 165 -9z m930 -196 c0 -2 -9 0 -20 6 -11 6
-20 13 -20 16 0 2 9 0 20 -6 11 -6 20 -13 20 -16z m-1927 -18 c-10 -13 -20
-22 -22 -20 -4 4 29 44 36 44 2 0 -4 -11 -14 -24z m2037 -71 c13 -14 21 -25
18 -25 -2 0 -15 11 -28 25 -13 14 -21 25 -18 25 2 0 15 -11 28 -25z m1180 -9
c0 -2 -8 -10 -17 -17 -16 -13 -17 -12 -4 4 13 16 21 21 21 13z m-267 -103 c-7
-2 -21 -2 -30 0 -10 3 -4 5 12 5 17 0 24 -2 18 -5z m-3270 -40 c-7 -2 -21 -2
-30 0 -10 3 -4 5 12 5 17 0 24 -2 18 -5z m2557 -410 c-11 -17 -11 -17 -6 0 3
10 6 24 7 30 0 9 2 9 5 0 3 -7 0 -20 -6 -30z m-2343 -5 c-3 -8 -6 -5 -6 6 -1
11 2 17 5 13 3 -3 4 -12 1 -19z m3201 -43 c-3 -3 -9 2 -12 12 -6 14 -5 15 5 6
7 -7 10 -15 7 -18z m-954 -61 c-7 -3 -10 -15 -7 -27 5 -21 5 -21 -13 -4 -17
15 -17 19 -4 27 8 5 20 9 25 9 6 0 5 -3 -1 -5z m1016 -4 c13 -8 13 -12 -4 -27
-18 -17 -18 -17 -13 4 3 12 0 24 -7 27 -6 2 -6 5 -1 5 6 0 17 -4 25 -9z
m-1040 -42 c0 -13 -23 -5 -28 10 -2 7 2 10 12 6 9 -3 16 -11 16 -16z m1065 3
c-3 -6 -11 -11 -17 -11 -6 0 -6 6 2 15 14 17 26 13 15 -4z"/>
<path d="M5345 2693 c-125 -10 -265 -26 -261 -30 2 -3 62 0 133 7 70 6 200 15
288 19 l160 8 -140 0 c-77 0 -158 -2 -180 -4z"/>
<path d="M1878 2683 c12 -2 30 -2 40 0 9 3 -1 5 -23 4 -22 0 -30 -2 -17 -4z"/>
<path d="M2268 2663 c7 -3 16 -2 19 1 4 3 -2 6 -13 5 -11 0 -14 -3 -6 -6z"/>
<path d="M1738 2653 c12 -2 30 -2 40 0 9 3 -1 5 -23 4 -22 0 -30 -2 -17 -4z"/>
<path d="M5023 2653 c9 -2 23 -2 30 0 6 3 -1 5 -18 5 -16 0 -22 -2 -12 -5z"/>
<path d="M5898 2653 c12 -2 32 -2 45 0 12 2 2 4 -23 4 -25 0 -35 -2 -22 -4z"/>
<path d="M5998 2643 c12 -2 30 -2 40 0 9 3 -1 5 -23 4 -22 0 -30 -2 -17 -4z"/>
<path d="M6160 2614 c129 -29 239 -82 300 -143 71 -71 118 -187 101 -247 -4
-16 -5 -38 0 -49 7 -18 8 -18 9 5 2 24 2 24 11 -5 10 -32 7 -310 -3 -321 -4
-3 -5 -29 -2 -58 3 -39 2 -46 -6 -31 -8 15 -9 10 -5 -25 4 -34 3 -40 -5 -25
-8 16 -9 14 -4 -12 10 -60 -93 -379 -134 -410 -9 -7 -12 -13 -7 -13 5 0 0 -7
-11 -16 -10 -8 -13 -13 -7 -9 9 4 11 1 7 -9 -3 -9 -10 -14 -14 -11 -12 8 -82
-83 -74 -96 5 -8 3 -9 -5 -4 -8 4 -25 -4 -44 -23 -18 -16 -47 -39 -66 -51 -31
-18 -51 -51 -31 -51 15 0 105 65 105 77 0 6 4 15 9 20 5 5 6 2 1 -6 -21 -36
25 1 76 62 147 174 239 479 252 837 l3 75 114 3 c65 1 120 7 127 14 10 8 13
33 11 92 l-3 81 -131 -4 -132 -3 -17 53 c-35 107 -129 235 -163 221 -11 -4
-13 -2 -7 8 5 9 4 11 -4 6 -6 -4 -39 6 -74 22 -60 28 -224 73 -263 71 -11 0
28 -11 86 -25z m350 -165 c0 -4 -18 11 -40 33 -22 22 -40 43 -40 46 0 3 18
-12 40 -33 22 -21 40 -42 40 -46z m321 -221 c-19 -32 -23 -33 -96 -38 -41 -3
-75 -2 -75 1 0 4 -7 10 -16 13 -13 5 -15 2 -11 -14 8 -29 0 -25 -19 11 -8 17
-12 35 -7 40 4 4 42 10 83 12 41 1 95 4 118 5 l44 2 -21 -32z"/>
<path d="M1383 2198 c-6 -7 -13 -28 -16 -45 -6 -31 -5 -33 22 -33 24 0 30 5
35 31 3 17 6 38 6 45 0 17 -34 18 -47 2z"/>
<path d="M6250 2190 c0 -32 22 -70 42 -70 14 0 18 8 18 33 0 37 -15 57 -42 57
-11 0 -18 -7 -18 -20z"/>
<path d="M1115 2120 c-3 -5 -2 -10 4 -10 5 0 13 5 16 10 3 6 2 10 -4 10 -5 0
-13 -4 -16 -10z"/>
<path d="M1448 2123 c12 -2 30 -2 40 0 9 3 -1 5 -23 4 -22 0 -30 -2 -17 -4z"/>
<path d="M1601 2124 c4 -21 -2 -26 -16 -14 -8 7 -15 8 -15 2 0 -5 7 -15 15
-22 9 -7 13 -20 10 -28 -3 -8 3 -25 13 -36 24 -27 179 -281 307 -501 121 -209
132 -225 155 -225 45 0 64 157 25 216 -11 16 -18 32 -17 37 1 4 -3 6 -9 5 -6
-2 -13 5 -14 16 -2 10 -12 28 -23 40 -10 11 -22 28 -26 36 -3 8 -22 35 -41 60
-19 25 -44 61 -54 81 -51 94 -219 321 -241 325 -8 2 -28 7 -43 10 -15 4 -27 3
-26 -2z m94 -34 c10 -11 16 -20 13 -20 -3 0 -13 9 -23 20 -10 11 -16 20 -13
20 3 0 13 -9 23 -20z"/>
<path d="M6014 2118 c-3 -4 -2 -12 1 -18 3 -5 0 -7 -9 -4 -9 4 -34 -21 -73
-73 -83 -110 -154 -213 -147 -213 4 0 -3 -9 -16 -20 -13 -11 -20 -20 -17 -20
6 0 -86 -135 -114 -168 -6 -8 -12 -24 -13 -37 0 -13 -4 -21 -7 -19 -8 4 -41
-43 -47 -66 -3 -8 -5 -30 -6 -47 l-1 -33 -62 0 -63 0 0 -30 0 -30 68 0 c56 0
69 -3 80 -20 7 -11 19 -20 27 -20 8 0 20 9 27 20 10 16 24 20 64 20 59 0 63 2
56 35 -5 30 -22 33 -22 5 0 -16 -7 -20 -34 -20 l-34 0 127 218 c161 274 257
430 285 461 11 13 15 21 9 17 -20 -11 -16 19 5 36 9 9 26 18 37 21 17 4 18 5
2 6 -10 0 -28 -4 -39 -10 -17 -9 -20 -9 -16 3 4 10 -3 14 -29 14 -19 0 -37 -4
-39 -8z m-451 -742 c8 -21 -2 -26 -55 -26 -41 0 -48 3 -48 20 0 17 7 20 49 20
33 0 51 -5 54 -14z"/>
<path d="M6183 2123 c15 -2 37 -2 50 0 12 2 0 4 -28 4 -27 0 -38 -2 -22 -4z"/>
<path d="M1528 2113 c6 -2 18 -2 25 0 6 3 1 5 -13 5 -14 0 -19 -2 -12 -5z"/>
<path d="M3266 1811 c-3 -4 6 -6 19 -3 14 2 25 6 25 8 0 8 -39 4 -44 -5z"/>
<path d="M4912 1393 c2 -14 16 -19 63 -23 l60 -4 -65 -6 -65 -7 73 -1 c58 -2
72 1 72 13 0 12 -13 15 -60 15 -33 0 -60 4 -60 10 0 6 23 7 60 3 42 -4 60 -2
60 6 0 7 -24 11 -71 11 -62 0 -70 -2 -67 -17z"/>
<path d="M5070 1400 c0 -5 14 -10 30 -10 25 0 30 -4 30 -25 0 -14 5 -25 10
-25 6 0 10 11 10 25 0 21 5 25 33 26 28 1 26 3 -13 10 -64 11 -100 11 -100 -1z"/>
<path d="M5853 1403 c-20 -3 -33 -10 -33 -19 0 -11 15 -14 62 -14 76 0 73 -8
-5 -11 -74 -3 -74 -19 1 -19 106 0 112 36 7 43 l-60 3 68 2 c37 1 67 7 67 12
0 10 -42 11 -107 3z"/>
<path d="M5980 1380 l0 -30 73 2 72 1 -65 7 -65 6 65 5 65 5 -62 2 c-35 1 -63
6 -63 12 0 5 28 11 63 13 l62 3 -72 2 -73 2 0 -30z"/>
<path d="M5300 1370 l0 -30 60 0 c33 0 60 4 60 10 0 6 -22 10 -50 10 -43 0
-50 3 -50 20 0 11 -4 20 -10 20 -5 0 -10 -13 -10 -30z"/>
<path d="M5780 1370 c0 -16 5 -30 10 -30 6 0 10 14 10 30 0 17 -4 30 -10 30
-5 0 -10 -13 -10 -30z"/>
<path d="M5225 1350 c-3 -5 -1 -10 4 -10 6 0 11 5 11 10 0 6 -2 10 -4 10 -3 0
-8 -4 -11 -10z"/>
<path d="M5120 1271 c0 -6 5 -13 10 -16 6 -3 10 1 10 9 0 9 -4 16 -10 16 -5 0
-10 -4 -10 -9z"/>
<path d="M5221 1264 c0 -11 3 -14 6 -6 3 7 2 16 -1 19 -3 4 -6 -2 -5 -13z"/>
<path d="M5276 1265 c-3 -8 -1 -15 4 -15 6 0 10 7 10 15 0 8 -2 15 -4 15 -2 0
-6 -7 -10 -15z"/>
<path d="M5330 1265 c0 -8 2 -15 4 -15 2 0 6 7 10 15 3 8 1 15 -4 15 -6 0 -10
-7 -10 -15z"/>
<path d="M5390 1272 c0 -6 -8 -9 -17 -6 -10 2 -8 -1 5 -7 25 -14 42 -5 24 13
-9 9 -12 9 -12 0z"/>
<path d="M5446 1271 c-4 -7 -5 -15 -2 -18 9 -9 19 4 14 18 -4 11 -6 11 -12 0z"/>
<path d="M5570 1265 c0 -8 5 -15 10 -15 6 0 10 7 10 15 0 8 -4 15 -10 15 -5 0
-10 -7 -10 -15z"/>
<path d="M5670 1264 c0 -8 5 -12 10 -9 6 3 10 10 10 16 0 5 -4 9 -10 9 -5 0
-10 -7 -10 -16z"/>
<path d="M5751 1264 c0 -11 3 -14 6 -6 3 7 2 16 -1 19 -3 4 -6 -2 -5 -13z"/>
<path d="M5906 1267 c3 -10 9 -15 12 -12 3 3 0 11 -7 18 -10 9 -11 8 -5 -6z"/>
</g>
</svg>
