<?xml version="1.0" standalone="no"?>
<!DOCTYPE svg PUBLIC "-//W3C//DTD SVG 20010904//EN"
 "http://www.w3.org/TR/2001/REC-SVG-20010904/DTD/svg10.dtd">
<svg version="1.0" xmlns="http://www.w3.org/2000/svg"
 width="768.000000pt" height="432.000000pt" viewBox="0 0 768.000000 432.000000"
 preserveAspectRatio="xMidYMid meet">

<g transform="translate(0.000000,432.000000) scale(0.100000,-0.100000)"
fill="#000000" stroke="none">
<path d="M1685 3030 c-132 -4 -283 -12 -335 -16 -52 -4 -118 -8 -147 -8 -28
-1 -49 -4 -46 -9 2 -4 -22 -5 -54 -3 -42 4 -50 3 -28 -3 23 -7 25 -9 9 -10
-12 0 -37 -3 -55 -6 -29 -4 -30 -3 -9 4 21 8 22 9 5 10 -38 2 -95 -12 -89 -21
3 -5 -5 -6 -18 -3 -27 7 -78 -9 -78 -24 0 -6 13 -2 30 7 25 14 31 15 42 3 11
-11 11 -13 0 -7 -7 4 -25 0 -40 -10 -15 -10 -31 -17 -36 -16 -5 2 -6 -21 -3
-50 5 -38 4 -47 -4 -33 -7 15 -8 11 -4 -20 2 -22 5 -68 5 -103 0 -35 4 -61 9
-58 5 3 12 -1 15 -10 3 -8 2 -12 -4 -9 -25 16 -6 -30 29 -68 68 -74 66 -68
122 -412 78 -484 153 -756 250 -906 71 -112 241 -219 434 -274 228 -65 622
-105 849 -85 371 32 514 110 690 375 66 99 191 353 254 516 39 101 96 296 123
422 16 76 67 175 102 201 25 18 43 21 142 21 99 0 117 -3 142 -21 47 -35 79
-110 127 -301 69 -276 222 -642 352 -839 81 -124 201 -243 284 -281 139 -66
316 -93 595 -93 356 0 661 59 874 170 263 137 342 327 481 1165 44 262 51 285
105 335 15 14 32 34 38 45 12 23 26 155 16 155 -4 0 -10 30 -13 68 -3 37 -7
75 -8 85 -1 10 -8 15 -16 12 -8 -3 -12 0 -9 7 2 7 12 12 21 12 24 -2 19 13 -6
20 -33 8 -46 6 -23 -5 23 -10 -49 -4 -105 10 l-35 9 30 2 c59 4 -44 19 -170
25 -66 2 -187 9 -270 15 -260 18 -824 24 -1005 11 -189 -13 -439 -42 -618 -71
-67 -11 -236 -32 -375 -46 -217 -22 -283 -25 -472 -21 -220 5 -459 24 -655 52
-58 8 -166 24 -240 34 -344 50 -744 67 -1205 51z m4908 -37 c-7 -2 -19 -2 -25
0 -7 3 -2 5 12 5 14 0 19 -2 13 -5z m60 -10 c-7 -2 -19 -2 -25 0 -7 3 -2 5 12
5 14 0 19 -2 13 -5z m-5763 -57 c0 -3 -4 -8 -10 -11 -5 -3 -10 -1 -10 4 0 6 5
11 10 11 6 0 10 -2 10 -4z m5125 -31 c148 -20 363 -91 341 -113 -3 -2 12 -25
34 -49 22 -25 50 -70 62 -102 22 -53 23 -68 22 -306 -1 -327 -28 -541 -99
-775 -39 -132 -78 -202 -156 -281 -71 -72 -73 -78 -8 -26 92 72 179 253 219
452 7 33 14 67 17 75 3 8 6 29 8 45 1 17 8 68 14 115 6 47 15 146 19 220 5
107 8 125 13 85 4 -27 5 29 3 125 -3 194 -14 251 -66 332 -16 26 -42 57 -56
68 -15 10 -22 20 -15 20 22 0 102 -101 123 -157 73 -196 29 -773 -86 -1124
-61 -188 -186 -319 -374 -393 -65 -25 -195 -60 -260 -70 -305 -45 -608 -43
-809 5 -93 22 -147 46 -202 90 -20 16 -41 29 -46 29 -15 0 -46 38 -39 48 3 5
-2 16 -11 23 -12 10 -14 10 -9 2 12 -22 1 -14 -25 14 -22 25 -22 26 -1 9 30
-25 28 -12 -4 30 -14 18 -31 31 -37 27 -5 -3 -7 -2 -4 4 9 14 -31 75 -45 67
-6 -4 -8 -3 -4 4 7 11 -29 82 -48 94 -6 4 -7 8 -3 8 5 0 5 6 0 13 -8 12 -9 17
-12 38 0 5 -5 7 -11 4 -6 -4 -7 1 -3 11 4 12 3 15 -5 10 -8 -5 -10 -1 -5 10 5
13 3 15 -7 9 -8 -5 -11 -4 -7 2 10 16 -23 104 -35 96 -7 -3 -8 -1 -4 6 4 6 -2
39 -13 74 -103 320 -124 590 -60 764 31 83 137 187 240 236 162 77 449 125
904 151 120 7 433 -4 550 -19z m-3455 -9 c498 -60 708 -149 796 -340 38 -81
47 -148 41 -286 -17 -389 -165 -795 -378 -1038 -90 -103 -172 -158 -264 -178
-178 -39 -344 -49 -557 -35 -349 23 -562 80 -706 188 -189 142 -287 438 -323
979 -37 535 71 663 611 728 86 10 652 -3 780 -18z m-1520 -127 l0 -59 -55 0
-55 0 0 58 c0 32 2 61 4 63 2 2 27 2 55 1 l51 -4 0 -59z m5728 24 c5 -65 -8
-80 -65 -79 l-48 1 -3 49 c-5 72 -1 78 60 74 l53 -3 3 -42z m71 -147 c-9 -8
-10 -7 -5 7 3 10 7 24 7 30 1 7 3 4 6 -7 3 -10 -1 -23 -8 -30z"/>
<path d="M6350 2454 c-110 -46 -125 -50 -115 -34 3 6 -1 7 -10 3 -10 -3 -13
-8 -6 -12 6 -4 1 -12 -12 -20 -19 -13 -21 -12 -10 1 7 8 10 18 6 22 -4 4 -2
11 6 15 10 7 10 9 -3 14 -8 3 -26 -3 -39 -14 -14 -10 -28 -19 -32 -19 -14 0
19 32 49 47 17 9 25 18 19 20 -14 5 -113 -84 -113 -101 0 -6 10 0 21 14 27 33
18 16 -27 -51 -44 -66 -52 -74 -30 -31 9 17 12 32 8 32 -5 0 -24 -28 -41 -62
-35 -71 -48 -93 -73 -122 -10 -11 -18 -25 -18 -30 0 -6 -5 -4 -10 4 -8 13 -10
13 -10 -1 0 -28 27 -30 34 -3 6 21 26 35 26 18 0 -11 -92 -153 -98 -153 -19 3
-25 -2 -13 -10 10 -7 8 -18 -14 -57 -30 -56 -55 -85 -55 -66 0 7 4 12 9 12 12
0 8 40 -4 42 -13 1 -55 -77 -57 -106 -1 -12 6 -40 16 -61 15 -32 17 -52 12
-114 -4 -42 -8 -87 -9 -101 -1 -19 3 -26 19 -28 11 -2 26 3 32 11 6 7 85 166
175 353 90 186 182 368 205 404 31 49 38 66 27 68 -22 5 -18 30 8 46 12 8 70
33 130 56 59 24 107 47 107 51 0 5 -1 9 -2 8 -2 -1 -50 -21 -108 -45z m-319
-207 c-10 -9 -11 -8 -5 6 3 10 9 15 12 12 3 -3 0 -11 -7 -18z"/>
<path d="M6070 2355 c0 -8 2 -15 4 -15 2 0 6 7 10 15 3 8 1 15 -4 15 -6 0 -10
-7 -10 -15z"/>
<path d="M5910 2090 c0 -5 -7 -6 -17 -3 -10 4 -14 2 -9 -5 3 -6 -2 -16 -11
-22 -16 -10 -16 -11 -1 -6 9 3 19 0 22 -7 2 -7 5 -5 5 4 1 9 8 19 16 23 17 6
21 26 5 26 -5 0 -10 -4 -10 -10z"/>
<path d="M6492 2060 c0 -14 2 -19 5 -12 2 6 2 18 0 25 -3 6 -5 1 -5 -13z"/>
<path d="M5866 2025 c-3 -8 -12 -15 -19 -15 -8 0 -37 -30 -64 -67 -63 -86 -65
-90 -48 -90 8 0 12 4 9 9 -3 5 7 25 22 45 23 30 28 33 36 19 5 -9 14 -16 20
-16 6 0 5 7 -3 17 -10 12 -10 14 -1 9 12 -7 21 6 26 36 3 22 17 39 27 33 5 -4
9 3 9 14 0 25 -6 27 -14 6z m-35 -44 c-6 -10 -8 -21 -5 -23 3 -3 -2 -8 -11
-11 -19 -8 -19 -2 1 28 19 29 29 33 15 6z"/>
<path d="M4680 1196 c0 -2 8 -10 18 -17 15 -13 16 -12 3 4 -13 16 -21 21 -21
13z"/>
<path d="M6108 1184 c-38 -20 -36 -28 2 -9 17 9 30 18 30 20 0 7 -1 6 -32 -11z"/>
<path d="M1307 2749 c-30 -26 -58 -64 -78 -106 -30 -63 -32 -74 -36 -207 -4
-152 8 -362 33 -546 47 -354 145 -583 291 -679 26 -17 51 -31 57 -31 5 0 -10
13 -35 28 -91 59 -161 155 -204 283 -84 244 -127 555 -124 887 1 208 26 290
111 372 53 52 44 51 -15 -1z"/>
<path d="M1234 2518 c-4 -6 -3 -8 3 -5 14 9 180 -66 218 -97 29 -24 29 -25 8
-25 -13 -1 -23 -3 -23 -5 0 -3 49 -105 109 -228 95 -194 168 -353 265 -571 26
-60 47 -77 70 -58 10 9 12 21 5 49 -19 82 -7 210 24 259 6 9 3 11 -10 6 -15
-6 -16 -4 -5 9 11 13 8 21 -14 47 -14 17 -23 31 -19 31 4 0 2 7 -5 15 -7 8
-16 12 -21 10 -4 -3 -8 3 -8 12 0 24 -6 51 -13 59 -4 3 -5 -15 -4 -40 1 -25
-1 -46 -6 -46 -5 0 -6 5 -3 10 3 6 1 10 -6 10 -6 0 -9 8 -6 20 3 11 2 18 -3
15 -4 -3 -11 2 -14 11 -3 8 -2 12 4 9 10 -6 6 47 -5 66 -6 8 -10 7 -16 -2 -6
-10 -9 -4 -9 19 0 17 -5 32 -11 32 -7 0 -9 -10 -5 -27 5 -24 5 -25 -5 -10 -6
11 -9 30 -6 43 2 13 -2 32 -10 41 -8 10 -11 12 -7 4 5 -9 3 -12 -5 -7 -6 4
-10 13 -9 19 1 7 -3 22 -10 35 -7 12 -10 27 -7 32 3 6 4 10 0 10 -3 0 -10 -10
-15 -22 -8 -21 -9 -20 -9 10 -1 19 -5 31 -11 27 -9 -6 -12 -2 -14 28 -1 6 -9
21 -18 31 -10 10 -14 24 -11 30 3 6 3 8 -2 4 -4 -4 -21 11 -37 33 -24 33 -32
38 -43 29 -8 -7 -12 -17 -8 -22 3 -6 -7 -1 -23 11 -16 11 -65 34 -109 49 -44
16 -90 34 -102 40 -27 15 -30 15 -39 0z m622 -586 c-3 -2 -1 -15 4 -28 11 -28
7 -30 -14 -8 -20 20 -21 41 -1 41 8 0 13 -2 11 -5z"/>
<path d="M6758 2973 c7 -3 16 -2 19 1 4 3 -2 6 -13 5 -11 0 -14 -3 -6 -6z"/>
</g>
</svg>
