<?xml version="1.0" standalone="no"?>
<!DOCTYPE svg PUBLIC "-//W3C//DTD SVG 20010904//EN"
 "http://www.w3.org/TR/2001/REC-SVG-20010904/DTD/svg10.dtd">
<svg version="1.0" xmlns="http://www.w3.org/2000/svg"
 width="512.000000pt" height="512.000000pt" viewBox="0 0 512.000000 512.000000"
 preserveAspectRatio="xMidYMid meet">

<g transform="translate(0.000000,512.000000) scale(0.100000,-0.100000)"
fill="#000000" stroke="none">
<path d="M1590 4159 c-397 -71 -690 -415 -690 -813 0 -148 40 -297 113 -421
39 -66 56 -88 130 -163 108 -112 262 -196 411 -226 l61 -13 3 -441 2 -442
-316 0 -316 0 -29 -29 c-49 -49 -35 -128 28 -160 15 -7 122 -11 327 -11 l306
0 0 -62 c0 -121 38 -148 215 -148 l100 0 23 -54 c66 -152 254 -250 415 -217
68 14 139 47 185 86 37 31 98 121 107 158 l7 27 683 0 682 0 32 -64 c52 -106
151 -181 273 -207 158 -34 342 59 414 211 l28 60 111 0 c138 0 180 11 205 53
19 30 20 53 20 442 -1 303 -4 415 -13 431 -7 11 -148 176 -315 367 -216 247
-312 348 -334 356 -19 7 -127 11 -279 11 l-248 0 -3 230 -3 230 -28 27 -27 28
-663 5 -662 5 -6 50 c-40 315 -289 591 -614 679 -73 20 -260 29 -335 15z m323
-225 c155 -49 297 -173 365 -316 22 -45 45 -107 52 -136 17 -74 15 -216 -5
-292 -52 -201 -212 -371 -410 -437 -68 -22 -98 -27 -195 -27 -99 0 -125 3
-188 26 -101 36 -174 82 -246 154 -72 72 -118 146 -153 246 -22 61 -26 91 -27
188 0 103 3 124 30 200 67 189 210 331 399 395 102 35 269 35 378 -1z m1815
-1611 l2 -883 -524 0 -525 0 -30 63 c-104 217 -384 284 -576 139 -54 -40 -120
-129 -130 -174 -6 -27 -9 -28 -66 -28 l-59 0 0 540 c0 424 3 541 13 544 6 2
46 11 89 20 295 65 543 323 612 639 l6 27 593 -2 592 -3 3 -882z m920 55 l272
-313 0 -312 0 -313 -69 0 c-69 0 -69 0 -80 33 -19 53 -81 135 -130 171 -25 19
-75 44 -111 56 -180 61 -384 -27 -466 -201 l-28 -59 -53 0 -53 0 0 625 0 625
223 0 222 0 273 -312z m-2273 -877 c158 -71 143 -294 -22 -336 -120 -31 -225
51 -225 175 0 74 39 133 112 164 47 20 87 19 135 -3z m2098 5 c102 -37 145
-151 96 -253 -28 -58 -87 -93 -158 -93 -138 0 -220 132 -160 257 41 85 131
121 222 89z"/>
<path d="M1658 3891 l-33 -29 -3 -254 c-2 -156 1 -267 7 -288 7 -25 44 -69
119 -143 102 -100 112 -107 149 -107 67 0 115 61 99 126 -4 14 -43 63 -86 108
l-80 83 0 209 c0 115 -5 226 -10 246 -22 78 -103 102 -162 49z"/>
<path d="M194 3160 c-52 -21 -77 -86 -53 -133 28 -55 35 -57 294 -57 212 0
242 2 261 18 52 41 55 109 8 153 -25 24 -28 24 -257 26 -128 1 -242 -2 -253
-7z"/>
<path d="M65 2406 c-39 -17 -55 -37 -61 -78 -7 -47 24 -94 73 -107 41 -12
1076 -16 1132 -5 65 13 101 80 75 142 -26 62 -22 62 -636 62 -433 -1 -560 -4
-583 -14z"/>
<path d="M569 1611 c-22 -22 -29 -39 -29 -68 1 -65 46 -103 125 -103 79 0 124
38 125 103 0 29 -7 46 -29 68 -27 26 -36 29 -96 29 -60 0 -69 -3 -96 -29z"/>
</g>
</svg>
