<?xml version="1.0" standalone="no"?>
<!DOCTYPE svg PUBLIC "-//W3C//DTD SVG 20010904//EN"
 "http://www.w3.org/TR/2001/REC-SVG-20010904/DTD/svg10.dtd">
<svg version="1.0" xmlns="http://www.w3.org/2000/svg"
 width="512.000000pt" height="512.000000pt" viewBox="0 0 512.000000 512.000000"
 preserveAspectRatio="xMidYMid meet">

<g transform="translate(0.000000,512.000000) scale(0.100000,-0.100000)"
fill="#000000" stroke="none">
<path d="M1565 4623 c-110 -202 -207 -375 -215 -384 -11 -12 -123 -37 -430
-94 -228 -43 -419 -81 -423 -85 -4 -4 17 -200 48 -435 l55 -429 -33 -35 c-19
-20 -154 -164 -301 -320 l-268 -284 69 -71 c38 -39 150 -156 248 -261 98 -104
203 -215 233 -246 l54 -56 -56 -433 c-31 -238 -55 -434 -54 -435 2 -2 192 -38
423 -81 231 -42 425 -81 431 -86 7 -5 103 -177 215 -383 112 -206 207 -374
212 -375 4 0 183 83 398 185 l390 185 395 -187 c217 -102 396 -184 398 -182 2
2 94 171 205 374 111 204 207 375 214 381 7 7 199 47 427 89 228 43 419 81
423 85 4 4 -17 200 -48 435 l-55 429 33 35 c19 20 154 164 301 320 l268 284
-69 71 c-38 39 -150 157 -248 261 -98 105 -203 215 -233 246 l-53 56 55 433
c31 239 55 434 53 435 -1 1 -191 37 -422 80 -231 43 -425 82 -432 87 -6 5
-102 175 -213 379 -111 203 -206 371 -210 374 -5 3 -185 -78 -400 -180 l-392
-185 -391 185 c-215 102 -393 185 -396 185 -4 0 -96 -165 -206 -367z m1264
-409 c655 -103 1194 -597 1355 -1242 38 -152 49 -245 49 -412 0 -167 -11 -260
-49 -412 -145 -582 -592 -1039 -1175 -1203 -280 -79 -618 -79 -898 0 -583 164
-1030 621 -1175 1203 -38 152 -49 245 -49 412 0 167 11 260 49 412 149 595
615 1061 1212 1213 219 55 453 65 681 29z"/>
<path d="M2350 3905 c-670 -114 -1150 -675 -1150 -1345 0 -750 610 -1360 1360
-1360 750 0 1360 610 1360 1360 0 567 -353 1074 -886 1275 -206 78 -477 105
-684 70z m983 -757 l115 -93 -33 -40 c-392 -487 -880 -1079 -887 -1077 -14 4
-737 606 -737 615 -1 10 189 237 198 237 3 0 116 -92 251 -205 135 -113 247
-204 250 -204 3 0 163 196 355 434 193 239 355 432 362 430 6 -2 63 -46 126
-97z"/>
</g>
</svg>
