<?xml version="1.0" standalone="no"?>
<!DOCTYPE svg PUBLIC "-//W3C//DTD SVG 20010904//EN"
 "http://www.w3.org/TR/2001/REC-SVG-20010904/DTD/svg10.dtd">
<svg version="1.0" xmlns="http://www.w3.org/2000/svg"
 width="512.000000pt" height="512.000000pt" viewBox="0 0 512.000000 512.000000"
 preserveAspectRatio="xMidYMid meet">

<g transform="translate(0.000000,512.000000) scale(0.100000,-0.100000)"
fill="#000000" stroke="none">
<path d="M4251 4820 c-46 -11 -83 -40 -102 -81 -12 -23 -74 -501 -205 -1556
l-189 -1523 -1818 0 c-1802 0 -1818 0 -1857 -20 -43 -22 -80 -80 -80 -126 0
-51 38 -111 84 -133 42 -21 44 -21 1934 -21 1576 0 1898 2 1925 14 42 17 83
66 91 108 3 18 89 706 191 1528 102 822 187 1501 190 1508 3 9 73 12 303 12
294 0 300 0 333 23 94 63 88 193 -12 252 -32 19 -54 20 -394 22 -198 1 -375
-2 -394 -7z"/>
<path d="M2176 4690 c-16 -5 -40 -19 -53 -32 -53 -49 -53 -47 -53 -478 l0
-400 -578 0 c-656 0 -626 4 -669 -80 -23 -43 -23 -50 -23 -406 l0 -363 -207
-3 c-196 -3 -210 -4 -244 -26 -68 -42 -69 -48 -69 -447 0 -342 1 -359 20 -391
12 -18 40 -42 64 -53 l43 -21 1524 2 1524 3 34 24 c18 13 42 42 52 65 18 39
19 93 19 1261 l0 1221 -22 44 c-17 33 -35 51 -68 68 l-44 22 -611 -1 c-335 0
-623 -5 -639 -9z m1079 -1345 l0 -1050 -442 -3 -443 -2 0 1055 0 1055 443 -2
442 -3 0 -1050z m-1185 -140 l0 -275 -485 0 -485 0 0 275 0 275 485 0 485 0 0
-275z m0 -745 l0 -170 -745 0 -745 0 0 170 0 170 745 0 745 0 0 -170z"/>
<path d="M730 1239 c-87 -15 -193 -70 -259 -136 -225 -226 -164 -609 119 -753
78 -40 130 -51 223 -51 211 1 392 138 451 340 22 76 21 194 -4 272 -69 225
-299 367 -530 328z m122 -299 c77 -22 128 -87 128 -164 0 -107 -68 -178 -170
-178 -156 0 -235 186 -126 295 49 49 104 64 168 47z"/>
<path d="M3298 1239 c-175 -26 -338 -173 -383 -344 -64 -246 70 -492 311 -575
68 -24 196 -28 265 -10 234 63 390 300 351 533 -44 260 -284 435 -544 396z
m173 -324 c42 -27 79 -96 79 -145 0 -123 -148 -213 -258 -156 -100 52 -123
203 -43 280 62 59 152 68 222 21z"/>
</g>
</svg>
